<?xml version="1.0" standalone="no"?>
<!DOCTYPE svg PUBLIC "-//W3C//DTD SVG 20010904//EN"
 "http://www.w3.org/TR/2001/REC-SVG-20010904/DTD/svg10.dtd">
<svg version="1.0" xmlns="http://www.w3.org/2000/svg"
 width="300.000000pt" height="300.000000pt" viewBox="0 0 300.000000 300.000000"
 preserveAspectRatio="xMidYMid meet">
<metadata>
Created by potrace 1.10, written by Peter Selinger 2001-2011
</metadata>
<g transform="translate(0.000000,300.000000) scale(0.100000,-0.100000)"
fill="#000000" stroke="none">
<path d="M2969 2980 c-3 -41 -5 -45 -24 -44 -11 0 -35 3 -52 7 -25 5 -33 3
-33 -8 0 -8 7 -15 15 -15 8 0 15 -7 15 -16 0 -10 -6 -14 -15 -10 -10 4 -15 -1
-15 -14 0 -11 -7 -20 -15 -20 -8 0 -15 9 -15 19 0 11 -6 18 -16 17 -9 0 -19 5
-21 12 -3 7 4 12 16 12 14 0 21 6 21 20 0 11 5 20 12 20 6 0 9 3 5 6 -9 9 -66
-38 -66 -55 -1 -15 -30 -40 -46 -41 -5 0 -4 4 4 9 8 5 15 18 16 29 1 15 -9 22
-49 31 -39 9 -51 9 -58 -1 -5 -9 -1 -14 12 -16 11 -2 20 -10 20 -18 0 -9 -7
-14 -17 -12 -10 2 -18 -3 -18 -11 0 -8 -6 -16 -12 -18 -8 -3 -13 4 -13 17 0
14 -5 20 -16 18 -10 -2 -19 3 -21 10 -3 7 4 12 16 12 14 0 21 6 21 20 0 12 7
20 18 21 10 0 12 3 5 6 -17 6 -72 -38 -72 -58 -1 -17 -29 -34 -39 -24 -3 3 -1
5 4 5 5 0 10 9 10 19 0 11 -4 18 -7 15 -4 -2 -10 0 -14 6 -3 5 -15 10 -27 10
-11 0 -33 8 -49 17 -27 16 -29 16 -52 -5 -13 -12 -27 -19 -30 -15 -4 3 -7 -6
-7 -21 0 -18 -4 -26 -12 -23 -7 2 -12 11 -12 20 1 9 -1 16 -5 15 -3 -1 -13 1
-21 4 -81 27 -80 27 -80 7 0 -10 7 -19 15 -19 8 0 15 -7 15 -16 0 -10 -6 -14
-15 -10 -10 4 -15 -1 -15 -14 0 -11 -7 -20 -15 -20 -8 0 -15 8 -15 18 0 15 -7
18 -32 17 -24 -2 -39 5 -55 21 -12 13 -33 24 -46 24 -12 0 -28 5 -35 12 -9 9
-12 7 -12 -10 0 -13 6 -22 15 -22 8 0 15 -7 15 -16 0 -10 -6 -14 -15 -10 -10
4 -15 -1 -15 -14 0 -11 -7 -20 -15 -20 -8 0 -15 8 -15 19 0 11 -6 18 -16 17
-9 0 -19 5 -21 12 -3 7 4 12 16 12 14 0 21 6 21 20 0 11 5 20 12 20 6 0 9 3 5
6 -10 10 -67 -39 -67 -59 0 -11 -5 -17 -12 -14 -7 2 -12 11 -12 20 1 11 -11
18 -40 22 -22 4 -47 12 -53 17 -10 8 -13 5 -13 -11 0 -12 6 -21 15 -21 8 0 15
-7 15 -15 0 -10 -7 -15 -17 -13 -10 2 -18 -3 -18 -11 0 -8 -6 -16 -12 -18 -8
-3 -13 4 -13 15 0 12 -6 19 -16 18 -9 0 -19 5 -21 12 -3 7 4 12 16 12 14 0 21
6 21 20 0 11 5 20 12 20 6 0 9 3 5 6 -10 10 -66 -40 -66 -59 -1 -11 -7 -17
-13 -14 -7 2 -12 12 -11 21 0 10 -1 15 -4 13 -2 -3 -26 3 -54 13 -48 18 -49
18 -49 -1 0 -10 7 -19 15 -19 8 0 15 -7 15 -16 0 -10 -6 -14 -15 -10 -10 4
-15 -1 -15 -14 0 -11 -7 -20 -15 -20 -8 0 -15 9 -15 19 0 11 -6 18 -16 17 -9
0 -19 5 -21 12 -3 7 4 12 16 12 14 0 21 6 21 19 0 11 6 22 13 24 7 4 8 6 1 6
-6 1 -17 -6 -24 -14 -7 -8 -19 -15 -26 -15 -8 0 -14 -11 -14 -26 0 -16 -5 -24
-12 -21 -7 2 -12 11 -12 20 1 11 -11 18 -40 22 -22 4 -46 11 -52 16 -8 6 -13
3 -17 -11 -4 -15 0 -20 15 -20 11 0 18 -5 16 -12 -3 -7 -11 -13 -19 -13 -8 0
-14 -6 -14 -14 0 -8 -6 -16 -12 -18 -8 -3 -13 4 -13 17 0 14 -5 20 -16 18 -10
-2 -19 3 -21 10 -3 7 4 12 16 12 14 0 21 6 21 20 0 11 5 20 12 20 6 0 9 3 5 6
-3 3 -20 -4 -37 -16 -24 -17 -31 -28 -27 -46 5 -26 0 -29 -22 -15 -8 5 -11 16
-8 24 4 12 -6 18 -44 26 -62 14 -59 14 -59 -4 0 -8 7 -15 15 -15 8 0 15 -7 15
-16 0 -10 -6 -14 -15 -10 -10 4 -15 -1 -15 -14 0 -11 -7 -20 -15 -20 -8 0 -15
8 -15 19 0 11 -6 18 -16 17 -9 0 -19 5 -21 12 -3 7 4 12 16 12 14 0 21 6 21
20 0 11 5 20 12 20 6 0 9 3 5 6 -10 10 -66 -39 -66 -58 -1 -10 -5 -18 -10 -18
-18 0 -23 21 -10 38 11 14 11 15 0 6 -12 -11 -49 -5 -92 17 -12 6 -18 3 -22
-12 -4 -14 0 -19 14 -19 10 0 19 -7 19 -15 0 -10 -7 -15 -17 -13 -10 2 -18 -3
-18 -11 0 -8 -6 -16 -12 -18 -8 -3 -13 4 -13 15 0 12 -6 19 -16 18 -9 0 -19 5
-21 12 -3 7 4 12 16 12 14 0 21 6 21 20 0 11 5 20 12 20 6 0 9 3 5 6 -9 9 -67
-38 -67 -55 0 -23 -36 -45 -44 -26 -3 8 0 12 7 9 8 -3 13 4 13 16 0 15 -9 21
-36 25 -19 4 -43 10 -52 16 -15 7 -18 5 -18 -11 0 -12 7 -20 16 -20 9 0 14 -6
12 -12 -3 -7 -11 -13 -19 -13 -8 0 -14 -6 -14 -14 0 -8 -6 -16 -12 -18 -8 -3
-13 4 -13 15 0 12 -6 19 -16 18 -9 0 -19 5 -21 12 -3 7 4 12 16 12 14 0 21 6
21 19 0 11 6 22 13 24 9 4 9 6 -1 6 -7 1 -20 -8 -29 -18 -9 -11 -20 -18 -25
-15 -4 3 -8 -7 -8 -21 0 -17 -5 -25 -12 -22 -7 2 -12 11 -12 20 1 12 -9 18
-35 22 -20 3 -43 10 -53 15 -11 6 -18 5 -22 -6 -9 -23 -8 -24 14 -24 12 0 20
-7 20 -16 0 -11 -5 -14 -16 -10 -11 4 -18 -1 -21 -14 -7 -25 -23 -26 -23 -1 0
11 -6 18 -16 17 -9 0 -19 5 -21 12 -3 7 4 12 16 12 14 0 21 6 21 20 0 11 5 20
12 20 6 0 9 2 6 5 -3 4 -21 -4 -39 -17 -23 -15 -33 -29 -31 -42 3 -12 -1 -17
-10 -14 -7 3 -12 12 -12 21 1 12 -11 18 -42 23 -24 3 -47 11 -50 16 -4 6 -10
5 -15 -3 -14 -22 -11 -29 11 -29 12 0 20 -7 20 -16 0 -11 -5 -14 -16 -10 -11
4 -18 -1 -21 -14 -7 -25 -23 -26 -23 -1 0 11 -6 18 -16 17 -9 0 -19 5 -21 12
-3 7 4 12 16 12 14 0 21 6 21 19 0 11 6 22 13 24 6 3 7 6 1 6 -5 1 -20 -8 -32
-19 -12 -11 -25 -20 -31 -20 -5 0 -7 -8 -5 -17 6 -23 -31 -49 -40 -28 -3 8 0
12 7 9 8 -3 13 4 13 15 0 11 -4 18 -7 15 -4 -2 -10 0 -14 6 -3 5 -19 10 -34
10 -15 0 -32 5 -38 11 -7 7 -12 4 -16 -10 -4 -16 0 -21 14 -21 11 0 19 -7 19
-16 0 -11 -5 -14 -16 -10 -11 4 -18 -1 -21 -14 -7 -25 -23 -26 -23 -1 0 14 -5
18 -20 14 -14 -4 -20 0 -20 11 0 9 8 16 20 16 13 0 20 7 20 20 0 11 5 20 12
20 6 0 9 3 5 6 -11 11 -67 -37 -67 -57 0 -10 -5 -19 -11 -19 -5 0 -7 -4 -4
-10 3 -5 -3 -10 -14 -10 -12 0 -21 -4 -21 -10 0 -7 505 -10 1495 -10 l1495 0
0 25 c0 14 -5 24 -11 23 -6 -2 -14 3 -16 10 -3 6 2 12 11 12 12 0 16 10 16 40
0 40 -19 58 -21 20z m-529 -40 c0 -11 7 -20 15 -20 8 0 15 -7 15 -16 0 -10 -6
-14 -15 -10 -10 4 -15 -1 -15 -14 0 -11 -7 -20 -15 -20 -8 0 -15 9 -15 19 0
11 -6 18 -16 17 -9 0 -19 5 -21 12 -3 7 4 12 16 12 14 0 21 6 21 20 0 11 7 20
15 20 8 0 15 -9 15 -20z m-347 -25 c8 -18 -11 -31 -25 -17 -11 11 -3 32 12 32
4 0 10 -7 13 -15z m210 0 c8 -18 -11 -31 -25 -17 -11 11 -3 32 12 32 4 0 10
-7 13 -15z m213 4 c10 -17 -13 -36 -27 -22 -12 12 -4 33 11 33 5 0 12 -5 16
-11z"/>
<path d="M2178 2949 c-35 -26 -36 -38 -3 -31 16 3 25 11 25 22 0 10 6 21 13
23 6 3 8 6 2 6 -5 0 -22 -9 -37 -20z"/>
<path d="M4 2795 c4 -43 16 -59 16 -22 0 17 7 28 20 32 33 10 60 -4 60 -31 0
-26 -9 -31 -26 -14 -8 8 -18 4 -35 -10 l-24 -20 27 11 c34 15 58 -1 58 -38 0
-21 -3 -23 -14 -14 -8 7 -25 9 -40 5 -20 -5 -26 -2 -26 11 0 9 -5 13 -10 10
-23 -14 -9 -35 23 -36 30 -1 31 -1 7 -9 -15 -5 33 -8 123 -9 92 -1 147 3 147
9 0 6 8 10 18 10 14 0 15 -2 2 -10 -11 -7 -2 -10 33 -10 52 0 77 16 77 49 0
11 9 25 20 31 28 15 60 -4 60 -36 0 -22 -2 -23 -20 -14 -21 11 -60 -2 -60 -20
0 -17 249 -13 265 4 12 12 12 15 1 19 -8 3 -24 3 -35 0 -16 -4 -21 -1 -21 15
0 12 9 26 20 32 28 15 60 -4 60 -35 0 -17 6 -25 18 -26 9 -1 4 -5 -13 -9 -23
-6 -15 -8 38 -9 39 -1 67 3 67 9 0 6 5 10 11 10 5 0 7 -4 4 -10 -9 -14 260
-13 287 1 15 8 19 8 14 0 -5 -8 12 -11 55 -11 l62 0 -26 20 c-18 14 -34 19
-51 14 -22 -5 -26 -3 -26 15 0 11 9 25 20 31 28 15 60 -4 60 -35 0 -16 6 -25
15 -25 8 0 15 -4 15 -10 0 -14 27 -12 33 3 4 10 6 10 6 0 1 -10 32 -13 119
-13 79 0 112 3 102 10 -9 6 -10 10 -3 10 6 0 15 -4 18 -10 4 -6 107 -10 276
-10 178 0 268 3 264 10 -3 6 -1 10 4 10 6 0 11 -4 11 -10 0 -6 29 -10 68 -9
49 1 60 3 42 9 -24 8 -23 8 8 9 17 1 32 -3 32 -9 0 -6 50 -10 130 -10 l131 0
-19 21 c-14 15 -26 18 -46 13 -22 -5 -26 -3 -26 15 0 29 43 49 65 31 8 -7 15
-23 15 -36 0 -18 6 -24 23 -24 18 0 19 -2 7 -10 -10 -6 63 -10 217 -10 l232 0
-2 49 c0 36 -4 48 -14 44 -8 -3 -13 3 -13 16 0 12 7 24 15 27 8 4 15 12 15 20
0 12 -224 14 -1495 14 l-1494 0 3 -35z m190 9 c9 -3 16 -17 16 -30 0 -26 -7
-29 -30 -14 -9 5 -19 5 -27 -1 -14 -13 -33 -3 -33 16 0 25 42 41 74 29z m100
0 c9 -3 16 -17 16 -30 0 -24 -14 -32 -25 -14 -4 7 -12 7 -25 0 -27 -14 -30
-13 -30 14 0 31 28 44 64 30z m114 -6 c12 -12 17 -48 6 -48 -3 0 -14 5 -24 10
-13 7 -21 7 -25 0 -11 -17 -35 -11 -35 10 0 33 54 52 78 28z m96 6 c9 -3 16
-16 16 -28 0 -18 -6 -21 -40 -21 -34 0 -40 3 -40 21 0 29 29 41 64 28z m107
-4 c25 -14 27 -55 2 -45 -10 4 -22 7 -28 7 -5 0 -18 -3 -27 -7 -14 -5 -18 -2
-18 12 0 38 33 53 71 33z m103 4 c9 -3 16 -16 16 -28 0 -18 -6 -21 -40 -21
-34 0 -40 3 -40 21 0 29 29 41 64 28z m108 -6 c8 -7 18 -23 21 -35 4 -17 1
-20 -12 -16 -9 3 -21 10 -26 14 -6 4 -17 4 -25 -1 -23 -15 -30 -12 -30 14 0
35 41 48 72 24z m102 6 c9 -3 16 -16 16 -28 0 -18 -6 -21 -39 -21 -30 0 -41 4
-44 17 -8 28 31 46 67 32z m100 0 c9 -3 16 -17 16 -30 0 -24 -14 -32 -25 -14
-4 7 -12 7 -25 0 -26 -14 -30 -13 -30 8 0 34 29 50 64 36z m110 0 c9 -3 16
-17 16 -30 0 -26 -7 -29 -30 -14 -9 5 -19 5 -27 -1 -14 -13 -33 -3 -33 16 0
25 42 41 74 29z m108 -6 c9 -7 19 -26 22 -43 4 -16 3 -25 -1 -20 -16 20 -50
33 -64 24 -22 -14 -29 -11 -29 15 0 35 41 48 72 24z m109 2 c22 -12 26 -50 5
-50 -8 0 -18 5 -21 10 -4 7 -12 7 -25 0 -27 -14 -30 -13 -30 14 0 34 33 46 71
26z m103 4 c9 -3 16 -16 16 -28 0 -19 -5 -22 -42 -21 -47 1 -62 20 -32 42 20
14 34 16 58 7z m102 -2 c16 -11 24 -41 13 -48 -5 -3 -15 -1 -22 5 -8 6 -18 6
-27 1 -23 -15 -30 -12 -30 14 0 31 38 47 66 28z m112 -4 c12 -12 17 -48 6 -48
-3 0 -14 5 -24 10 -13 7 -21 7 -25 0 -11 -18 -32 -11 -31 10 2 35 49 53 74 28z
m96 6 c9 -3 16 -16 16 -28 0 -18 -6 -21 -40 -21 -34 0 -40 3 -40 21 0 29 29
41 64 28z m107 -4 c10 -6 19 -20 19 -30 0 -23 -4 -24 -30 -10 -13 7 -21 7 -25
0 -3 -5 -13 -10 -21 -10 -20 0 -18 37 4 49 22 13 29 13 53 1z m103 4 c9 -3 16
-16 16 -28 0 -18 -6 -21 -40 -21 -34 0 -40 3 -40 21 0 29 29 41 64 28z m107
-4 c11 -6 19 -21 19 -36 0 -23 -1 -24 -23 -10 -15 10 -27 12 -37 6 -23 -14
-30 -12 -30 10 0 10 8 24 18 29 22 13 29 13 53 1z m103 4 c9 -3 16 -16 16 -28
0 -18 -6 -21 -40 -21 -34 0 -40 3 -40 21 0 29 29 41 64 28z m110 -7 c11 -8 15
-19 10 -30 -7 -19 -20 -22 -29 -7 -4 7 -12 7 -25 0 -26 -14 -30 -13 -30 8 0
38 40 54 74 29z m104 1 c12 -12 17 -48 6 -48 -3 0 -14 5 -24 10 -13 7 -21 7
-25 0 -11 -17 -35 -11 -35 10 0 33 54 52 78 28z m110 -1 c20 -11 21 -15 8 -32
-11 -15 -17 -17 -28 -8 -9 8 -19 9 -28 3 -23 -15 -30 -12 -30 14 0 36 36 46
78 23z m110 1 c17 -17 15 -48 -2 -48 -8 0 -18 5 -21 10 -4 7 -19 4 -40 -9
l-34 -20 10 27 c6 14 15 32 21 39 13 16 50 17 66 1z m100 0 c12 -12 17 -48 6
-48 -3 0 -14 5 -24 10 -13 7 -21 7 -25 0 -11 -18 -25 -10 -25 14 0 34 43 49
68 24z m96 6 c9 -3 16 -17 16 -30 0 -24 -14 -32 -25 -14 -4 7 -12 7 -25 0 -26
-14 -30 -13 -30 8 0 34 29 50 64 36z m114 -6 c12 -12 17 -48 6 -48 -3 0 -14 5
-24 10 -13 7 -21 7 -25 0 -11 -18 -25 -10 -25 14 0 34 43 49 68 24z m-2737
-58 c10 -6 19 -20 19 -31 0 -18 -4 -20 -29 -14 -22 5 -32 2 -40 -12 -9 -15
-10 -14 -11 13 0 29 15 54 33 54 4 0 17 -5 28 -10z m100 0 c10 -6 19 -18 19
-28 0 -13 -9 -18 -40 -18 -32 -1 -40 2 -40 17 0 10 8 23 18 28 21 13 20 13 43
1z m110 0 c10 -6 19 -19 19 -29 0 -15 -7 -18 -40 -17 -42 1 -53 19 -28 44 15
15 24 15 49 2z m210 0 c10 -6 19 -19 19 -29 0 -14 -8 -18 -45 -18 -49 0 -60
18 -27 43 21 16 28 17 53 4z m213 -5 c28 -21 14 -39 -32 -41 -35 -2 -42 1 -42
16 0 18 24 39 45 39 6 0 18 -6 29 -14z m97 5 c11 -6 19 -21 19 -35 0 -17 6
-25 18 -26 16 -1 16 -2 0 -6 -10 -2 -25 3 -34 11 -10 10 -24 14 -40 10 -20 -5
-24 -2 -24 14 0 12 8 26 18 31 21 13 20 13 43 1z m107 -2 c7 -7 12 -23 12 -36
0 -20 -3 -22 -14 -13 -8 7 -25 9 -40 5 -22 -5 -26 -3 -26 14 0 34 45 53 68 30z
m103 2 c10 -6 19 -20 19 -31 0 -18 -4 -20 -26 -15 -15 4 -32 2 -40 -5 -11 -9
-14 -7 -14 13 0 24 16 48 33 48 4 0 17 -5 28 -10z m217 -2 c25 -25 14 -43 -28
-44 -32 -1 -40 2 -40 17 0 31 46 49 68 27z m103 2 c10 -6 19 -19 19 -29 0 -15
-7 -18 -40 -17 -42 1 -53 19 -28 44 15 15 24 15 49 2z m100 0 c11 -6 19 -21
19 -36 0 -21 -3 -23 -18 -15 -10 6 -28 7 -40 4 -17 -4 -22 -1 -22 15 0 12 8
26 18 31 21 13 20 13 43 1z m110 0 c10 -6 19 -19 19 -29 0 -15 -7 -18 -40 -17
-43 1 -58 22 -30 43 19 15 26 16 51 3z m100 0 c10 -6 19 -19 19 -29 0 -15 -8
-18 -40 -18 -32 0 -40 3 -40 18 0 10 8 23 18 28 21 13 20 13 43 1z m110 0 c10
-6 19 -19 19 -29 0 -14 -8 -18 -45 -18 -49 0 -60 18 -27 43 21 16 28 17 53 4z
m100 0 c11 -6 19 -21 19 -35 0 -17 6 -25 18 -26 9 0 12 -3 5 -5 -6 -3 -23 2
-37 11 -19 13 -29 14 -45 5 -19 -9 -21 -8 -21 14 0 14 8 30 18 35 21 13 20 13
43 1z m112 -4 c32 -25 21 -43 -28 -43 -37 0 -45 4 -45 18 0 17 25 38 45 38 6
0 18 -6 28 -13z m98 4 c10 -6 19 -19 19 -29 0 -15 -7 -18 -40 -17 -42 1 -53
19 -28 44 15 15 24 15 49 2z m103 4 c11 -4 16 -18 16 -43 -1 -30 -2 -33 -11
-18 -8 14 -18 17 -40 12 -25 -6 -29 -4 -29 14 0 11 8 25 18 30 20 12 25 13 46
5z m107 -4 c11 -6 19 -21 19 -35 0 -14 6 -25 13 -26 9 0 9 -2 0 -6 -7 -2 -20
3 -29 12 -11 10 -25 14 -40 11 -19 -5 -24 -2 -24 13 0 11 8 25 18 30 21 13 20
13 43 1z m223 -5 c12 -9 17 -22 13 -35 -4 -14 0 -20 11 -21 12 0 13 -2 4 -6
-7 -3 -21 2 -31 11 -13 12 -27 15 -45 10 -22 -5 -26 -3 -26 14 0 20 24 41 45
41 6 0 18 -6 29 -14z m97 5 c10 -6 19 -19 19 -29 0 -15 -7 -18 -40 -17 -42 1
-53 19 -28 44 15 15 24 15 49 2z m107 -2 c7 -7 12 -22 12 -34 0 -13 7 -24 18
-26 9 -3 -3 -5 -28 -5 -32 0 -38 1 -20 6 16 5 21 9 13 14 -7 4 -24 5 -38 1
-21 -5 -25 -3 -25 14 0 34 45 53 68 30z m103 2 c10 -6 19 -19 19 -29 0 -15 -7
-18 -40 -17 -42 1 -53 19 -28 44 15 15 24 15 49 2z"/>
<path d="M463 2793 c-23 -9 -13 -20 17 -19 33 1 39 10 14 20 -9 3 -16 6 -17 5
-1 0 -8 -3 -14 -6z"/>
<path d="M1413 2793 c-23 -9 -14 -20 17 -20 24 0 27 3 19 14 -12 14 -16 15
-36 6z"/>
<path d="M1933 2793 c-23 -9 -14 -20 17 -20 24 0 27 3 19 14 -12 14 -16 15
-36 6z"/>
<path d="M2 2613 c-1 -21 1 -46 4 -55 5 -17 85 -18 1493 -18 l1488 0 0 55 0
55 -1492 0 -1492 0 -1 -37z m79 -1 c-6 -12 -6 -23 0 -33 9 -12 10 -12 6 1 -6
21 11 50 29 50 11 0 12 -4 5 -18 -6 -11 -6 -24 0 -35 9 -15 5 -17 -29 -17 -28
0 -42 5 -46 16 -10 26 3 54 25 54 16 0 18 -3 10 -18z m140 0 c-6 -12 -6 -23 0
-33 9 -12 10 -12 6 1 -6 21 11 50 29 50 12 0 13 -4 4 -21 -9 -15 -8 -24 1 -35
10 -12 5 -14 -29 -14 -28 0 -42 5 -46 16 -10 26 3 54 25 54 16 0 18 -3 10 -18z
m138 -3 c-8 -16 -8 -24 1 -33 10 -8 11 -7 8 4 -7 21 9 50 28 50 12 0 13 -4 4
-21 -9 -15 -8 -24 1 -35 10 -12 5 -14 -29 -14 -28 0 -42 5 -46 16 -10 26 3 54
25 54 17 0 18 -3 8 -21z m140 0 c-8 -16 -8 -24 1 -33 10 -8 11 -7 8 4 -7 21 9
50 28 50 12 0 13 -4 4 -21 -9 -15 -8 -24 1 -35 10 -12 5 -14 -29 -14 -28 0
-42 5 -46 16 -10 26 3 54 25 54 17 0 18 -3 8 -21z m142 3 c-6 -12 -6 -23 0
-33 9 -12 10 -12 6 1 -6 21 11 50 29 50 12 0 12 -4 4 -20 -9 -16 -8 -18 5 -14
8 4 15 1 15 -5 0 -6 -5 -11 -11 -11 -5 0 -7 -4 -4 -10 4 -6 -10 -10 -33 -10
-28 0 -42 5 -46 16 -10 26 3 54 25 54 16 0 18 -3 10 -18z m138 -3 c-8 -16 -8
-24 1 -33 10 -8 11 -7 8 4 -7 21 9 50 28 50 12 0 12 -4 4 -20 -9 -16 -8 -18 5
-14 8 4 15 1 15 -5 0 -6 -5 -11 -11 -11 -5 0 -7 -4 -4 -10 4 -6 -10 -10 -33
-10 -28 0 -42 5 -46 16 -10 26 3 54 25 54 17 0 18 -3 8 -21z m140 0 c-8 -16
-8 -24 1 -33 10 -8 11 -7 8 4 -7 21 9 50 28 50 12 0 13 -4 4 -21 -9 -15 -8
-24 1 -35 10 -12 5 -14 -29 -14 -28 0 -42 5 -46 16 -10 26 3 54 25 54 17 0 18
-3 8 -21z m140 0 c-8 -16 -8 -24 1 -33 10 -8 11 -7 8 4 -7 21 9 50 28 50 12 0
13 -4 4 -21 -9 -15 -8 -24 1 -35 10 -12 5 -14 -29 -14 -28 0 -42 5 -46 16 -10
26 3 54 25 54 17 0 18 -3 8 -21z m140 0 c-8 -16 -8 -24 1 -33 10 -8 11 -7 8 4
-7 21 9 50 28 50 12 0 13 -4 4 -21 -9 -15 -8 -24 1 -35 10 -12 5 -14 -29 -14
-28 0 -42 5 -46 16 -10 26 3 54 25 54 17 0 18 -3 8 -21z m182 2 c-6 -10 -5
-23 0 -34 9 -15 5 -17 -29 -17 -42 0 -58 17 -47 51 4 13 16 18 45 17 34 0 38
-3 31 -17z m140 0 c-6 -10 -5 -23 0 -34 9 -15 5 -17 -29 -17 -42 0 -58 17 -47
51 4 13 16 18 45 17 34 0 38 -3 31 -17z m100 1 c-6 -12 -6 -23 0 -33 9 -12 10
-12 6 1 -6 21 11 50 29 50 12 0 12 -4 4 -20 -9 -16 -8 -18 5 -14 8 4 15 1 15
-5 0 -6 -5 -11 -11 -11 -5 0 -7 -4 -4 -10 4 -6 -10 -10 -33 -10 -28 0 -42 5
-46 16 -10 26 3 54 25 54 16 0 18 -3 10 -18z m178 -3 c-7 -15 -6 -17 6 -13 8
4 15 1 15 -5 0 -6 -5 -11 -11 -11 -5 0 -7 -4 -4 -10 4 -6 -10 -10 -33 -10 -42
0 -58 17 -47 51 4 13 16 18 45 17 35 0 38 -2 29 -19z m142 2 c-6 -10 -5 -23 0
-34 9 -15 5 -17 -29 -17 -42 0 -58 17 -47 51 4 13 16 18 45 17 34 0 38 -3 31
-17z m138 -3 c-7 -14 -7 -23 2 -34 10 -12 5 -14 -29 -14 -42 0 -58 17 -47 51
4 13 16 18 45 17 36 0 39 -2 29 -20z m102 4 c-6 -12 -6 -23 0 -33 9 -12 10
-12 6 1 -6 21 11 50 29 50 12 0 13 -4 4 -21 -9 -15 -8 -24 1 -35 10 -12 5 -14
-29 -14 -28 0 -42 5 -46 16 -10 26 3 54 25 54 16 0 18 -3 10 -18z m140 0 c-6
-12 -6 -23 0 -33 9 -12 10 -12 6 1 -6 21 11 50 29 50 12 0 13 -4 4 -21 -9 -15
-8 -24 1 -35 10 -12 5 -14 -29 -14 -28 0 -42 5 -46 16 -10 26 3 54 25 54 16 0
18 -3 10 -18z m140 0 c-6 -12 -6 -23 0 -33 9 -12 10 -12 6 1 -6 21 11 50 29
50 12 0 13 -4 4 -21 -9 -15 -8 -24 1 -35 10 -12 5 -14 -29 -14 -28 0 -42 5
-46 16 -10 26 3 54 25 54 16 0 18 -3 10 -18z m189 8 c0 -5 -5 -12 -10 -15 -7
-4 -6 -13 1 -26 9 -18 8 -20 -8 -17 -10 2 -19 13 -21 26 -2 12 -8 20 -13 17
-5 -4 -5 -14 1 -26 9 -16 7 -19 -9 -19 -23 0 -37 35 -21 54 12 15 80 19 80 6z
m140 -1 c0 -4 -5 -11 -10 -14 -7 -4 -7 -13 0 -26 10 -17 7 -19 -29 -19 -41 0
-57 17 -46 51 5 13 16 18 45 17 22 0 40 -4 40 -9z m140 0 c0 -4 -5 -11 -10
-14 -7 -4 -7 -13 0 -26 8 -15 7 -19 -4 -19 -18 0 -39 34 -28 45 4 5 1 5 -6 1
-9 -5 -9 -12 -2 -27 9 -16 7 -19 -9 -19 -22 0 -34 24 -26 51 5 13 16 18 45 17
22 0 40 -4 40 -9z"/>
<path d="M7 2518 c19 -32 24 -95 7 -109 -8 -6 -14 -22 -14 -35 0 -19 5 -24 28
-25 15 0 687 -1 1495 -2 l1467 -2 0 93 0 92 -223 0 c-165 0 -227 -3 -236 -12
-11 -10 -13 -10 -7 0 6 9 -249 12 -1259 12 -1010 0 -1265 -3 -1258 -12z m93
-15 c0 -5 -7 -17 -15 -27 -12 -16 -12 -22 -2 -29 9 -7 9 -10 0 -14 -10 -3 -9
-11 2 -33 14 -28 14 -28 -20 -32 -40 -5 -40 -6 -20 32 11 22 12 30 2 33 -9 4
-9 7 0 14 10 7 10 13 -2 29 -22 29 -18 34 20 34 19 0 35 -3 35 -7z m75 -22
c-11 -23 -12 -31 -2 -34 9 -4 9 -8 -2 -15 -12 -9 -12 -14 3 -36 l16 -26 -35 0
c-40 0 -41 2 -19 35 15 23 15 25 -1 25 -14 0 -15 3 -6 14 9 11 9 20 2 35 -16
29 -14 31 24 31 l36 0 -16 -29z m90 3 c-14 -22 -15 -28 -4 -35 12 -8 12 -11 0
-18 -12 -8 -12 -13 3 -35 l16 -26 -35 0 c-39 0 -40 2 -24 32 9 16 8 23 -2 29
-12 8 -12 11 0 18 12 8 12 13 -3 35 l-16 26 41 0 41 0 -17 -26z m89 1 c-13
-20 -14 -28 -4 -40 10 -12 9 -15 -4 -15 -16 0 -16 -2 -2 -22 23 -32 20 -38
-19 -38 l-35 0 16 26 c15 22 15 27 3 35 -12 7 -12 10 0 18 11 7 10 13 -4 35
l-17 26 41 0 41 0 -16 -25z m96 17 c0 -4 -7 -17 -15 -29 -12 -17 -12 -23 -2
-27 9 -5 9 -7 0 -12 -10 -4 -9 -12 2 -35 l16 -29 -37 0 -36 0 17 26 c14 22 15
28 4 36 -11 7 -11 11 -2 15 10 3 9 11 -2 34 l-16 29 36 0 c19 0 35 -3 35 -8z
m90 1 c0 -5 -7 -17 -15 -27 -12 -16 -12 -22 -2 -29 9 -7 9 -10 0 -14 -10 -3
-9 -11 2 -33 20 -38 20 -37 -20 -32 -34 4 -34 4 -20 32 11 22 12 30 2 33 -9 4
-9 7 0 14 10 7 10 13 -2 29 -22 29 -18 34 20 34 19 0 35 -3 35 -7z m75 -22
c-11 -23 -12 -31 -2 -34 9 -4 9 -8 -2 -15 -11 -8 -10 -14 4 -36 l17 -26 -36 0
c-39 0 -43 5 -21 34 12 16 12 22 2 29 -9 7 -9 10 0 14 10 3 10 10 -2 26 -22
31 -19 37 20 37 l36 0 -16 -29z m90 3 c-14 -22 -15 -28 -4 -35 12 -8 12 -11 0
-18 -12 -8 -12 -13 3 -35 l16 -26 -35 0 c-39 0 -42 6 -19 38 14 20 14 22 0 22
-19 0 -21 17 -4 22 9 3 8 12 -5 31 l-17 27 41 0 41 0 -17 -26z m90 0 c-14 -22
-15 -28 -4 -35 12 -8 12 -10 0 -18 -10 -6 -11 -13 -2 -29 16 -30 15 -32 -24
-32 l-35 0 16 26 c15 22 15 27 3 35 -12 7 -12 10 0 18 11 7 10 13 -4 35 l-17
26 42 0 42 0 -17 -26z m95 18 c0 -5 -6 -17 -14 -27 -12 -17 -12 -21 3 -32 15
-11 14 -12 -3 -13 -17 0 -17 -1 -2 -25 22 -33 21 -35 -20 -35 l-36 0 17 26
c14 22 15 28 4 36 -11 7 -11 11 -2 15 10 3 9 11 -2 34 l-16 29 36 0 c19 0 35
-4 35 -8z m90 1 c0 -5 -7 -17 -15 -27 -12 -16 -12 -22 -2 -29 9 -7 9 -10 0
-14 -10 -3 -9 -11 2 -34 l16 -29 -36 0 -36 0 16 29 c11 23 12 31 2 35 -9 5 -9
7 0 12 10 4 9 12 -2 35 l-16 29 36 0 c19 0 35 -3 35 -7z m75 -22 c-11 -23 -12
-31 -2 -35 9 -5 9 -7 0 -12 -10 -4 -9 -12 2 -35 l16 -29 -36 0 -36 0 16 29
c11 23 12 31 2 34 -9 4 -9 7 0 14 10 7 10 13 -2 29 -22 29 -18 34 20 34 l36 0
-16 -29z m90 3 c-14 -22 -15 -28 -4 -35 12 -8 12 -11 0 -18 -12 -8 -12 -13 3
-35 l16 -26 -35 0 c-40 0 -41 2 -19 35 15 23 15 25 -1 25 -14 0 -15 3 -5 15
10 12 9 20 -4 40 l-16 25 41 0 41 0 -17 -26z m90 0 c-14 -22 -15 -28 -4 -35
12 -8 12 -11 0 -18 -12 -8 -12 -13 3 -35 l16 -26 -40 0 -40 0 16 26 c15 22 15
27 3 35 -12 8 -12 10 0 18 12 8 12 13 -3 35 l-16 26 41 0 41 0 -17 -26z m125
19 c0 -5 -7 -17 -15 -27 -12 -16 -12 -22 -2 -29 9 -7 9 -10 0 -14 -10 -3 -9
-11 2 -33 14 -28 14 -28 -20 -32 -40 -5 -40 -6 -20 32 11 22 12 30 2 33 -9 4
-9 7 0 14 10 7 10 13 -2 29 -22 29 -18 34 20 34 19 0 35 -3 35 -7z m75 -22
c-11 -23 -12 -31 -2 -34 9 -4 9 -8 -2 -15 -11 -8 -11 -14 3 -33 22 -33 21 -36
-19 -31 -39 5 -41 8 -20 36 12 16 12 22 2 29 -9 7 -9 10 0 14 10 3 10 10 -2
26 -22 31 -19 37 20 37 l36 0 -16 -29z m90 3 c-14 -22 -15 -28 -4 -35 12 -8
12 -11 0 -18 -12 -8 -12 -13 3 -35 l16 -26 -35 0 c-39 0 -42 6 -19 38 14 20
14 22 0 22 -19 0 -21 17 -4 22 9 3 8 12 -5 31 l-17 27 41 0 41 0 -17 -26z m88
-1 c-13 -19 -14 -28 -5 -31 17 -5 15 -22 -4 -22 -14 0 -14 -2 0 -22 23 -32 20
-38 -19 -38 l-35 0 16 26 c15 22 15 27 3 35 -12 7 -12 10 0 18 11 7 10 13 -4
35 l-17 26 41 0 41 0 -17 -27z m97 19 c0 -4 -7 -17 -15 -29 -12 -16 -12 -23
-2 -26 9 -4 9 -7 0 -14 -10 -7 -10 -13 2 -29 22 -29 18 -34 -20 -34 l-35 0 16
26 c15 22 15 27 3 36 -11 7 -11 11 -2 15 10 3 9 11 -2 34 l-16 29 36 0 c19 0
35 -3 35 -8z m90 1 c0 -5 -7 -17 -15 -27 -12 -16 -12 -22 -2 -29 9 -7 9 -10 0
-14 -10 -3 -9 -11 2 -34 l16 -29 -36 0 -36 0 16 29 c11 23 12 31 2 34 -9 4 -9
7 0 14 10 7 10 13 -2 29 -22 29 -18 34 20 34 19 0 35 -3 35 -7z m75 -22 c-11
-23 -12 -31 -2 -34 9 -4 9 -8 -2 -15 -11 -8 -11 -14 3 -33 22 -33 21 -36 -19
-31 -34 4 -34 4 -20 32 11 22 12 30 2 34 -9 5 -9 7 0 12 10 4 10 10 -2 27 -22
31 -19 37 20 37 l36 0 -16 -29z m90 3 c-14 -22 -15 -28 -4 -35 12 -8 12 -11 0
-18 -12 -8 -12 -13 3 -35 l16 -26 -35 0 c-40 0 -41 2 -19 35 15 23 15 25 0 25
-9 0 -16 5 -16 10 0 6 5 10 11 10 6 0 8 7 5 15 -3 8 -9 22 -12 30 -5 12 2 15
31 15 l37 0 -17 -26z m89 0 c-15 -22 -15 -27 -3 -35 12 -7 12 -10 0 -18 -10
-6 -11 -13 -2 -29 16 -30 15 -32 -24 -32 l-35 0 16 26 c15 22 15 27 3 35 -12
7 -12 10 0 18 11 7 10 13 -4 35 l-17 26 41 0 41 0 -16 -26z m96 18 c0 -5 -6
-17 -14 -27 -12 -17 -12 -21 3 -32 15 -11 14 -12 -3 -13 -17 0 -17 -1 -2 -25
22 -33 21 -35 -19 -35 l-35 0 16 26 c15 22 15 27 3 35 -12 7 -12 10 0 18 11 7
10 13 -4 35 l-17 26 36 0 c20 0 36 -4 36 -8z m90 0 c0 -4 -7 -17 -15 -29 -12
-17 -12 -23 -2 -27 9 -5 9 -7 0 -12 -10 -4 -9 -12 2 -35 l16 -29 -36 0 -36 0
16 29 c11 23 12 31 2 35 -9 5 -9 7 0 12 10 4 9 12 -2 35 l-16 29 36 0 c19 0
35 -3 35 -8z m90 1 c0 -5 -7 -17 -15 -27 -12 -16 -12 -22 -2 -29 9 -7 9 -10 0
-14 -10 -3 -9 -11 2 -34 l16 -29 -36 0 -36 0 16 29 c11 23 12 31 2 34 -9 4 -9
7 0 14 10 7 10 13 -2 29 -22 29 -18 34 20 34 19 0 35 -3 35 -7z m75 -22 c-11
-23 -12 -31 -2 -34 9 -4 9 -8 -2 -15 -12 -9 -12 -14 3 -36 l16 -26 -35 0 c-38
0 -42 5 -20 34 12 16 12 22 2 29 -9 7 -9 10 0 14 10 3 10 10 -2 26 -22 31 -19
37 20 37 l36 0 -16 -29z m90 3 c-14 -22 -15 -28 -4 -35 12 -8 12 -11 0 -18
-12 -8 -12 -13 3 -35 l16 -26 -35 0 c-39 0 -40 2 -24 32 9 16 8 23 -2 29 -12
8 -12 11 0 18 12 8 12 13 -3 35 l-16 26 41 0 41 0 -17 -26z m125 19 c0 -5 -7
-17 -15 -27 -12 -16 -12 -22 -2 -29 9 -7 9 -10 0 -14 -10 -3 -9 -11 2 -33 14
-28 14 -28 -20 -32 -40 -5 -40 -6 -20 32 11 22 12 30 2 33 -9 4 -9 7 0 14 10
7 10 13 -2 29 -22 29 -18 34 20 34 19 0 35 -3 35 -7z m90 0 c0 -5 -7 -17 -15
-27 -12 -16 -12 -22 -2 -28 9 -6 9 -10 -2 -17 -11 -7 -10 -13 4 -35 l17 -26
-36 0 -37 0 16 29 c11 23 12 31 2 35 -9 5 -9 7 0 12 10 4 10 10 -2 27 -22 31
-19 37 20 37 19 0 35 -3 35 -7z m75 -19 c-14 -22 -15 -28 -4 -35 12 -8 12 -11
0 -18 -12 -8 -12 -13 3 -35 l16 -26 -35 0 c-39 0 -42 6 -19 38 14 20 14 22 0
22 -19 0 -21 17 -4 22 9 3 8 12 -5 31 l-17 27 41 0 41 0 -17 -26z m90 0 c-14
-22 -15 -28 -4 -35 12 -8 12 -11 0 -18 -12 -8 -12 -13 3 -35 l16 -26 -40 0
-40 0 16 26 c15 22 15 27 3 35 -12 8 -12 10 0 18 12 8 12 13 -3 35 l-16 26 41
0 41 0 -17 -26z m95 18 c0 -4 -7 -17 -15 -29 -12 -16 -12 -23 -2 -26 9 -4 9
-7 0 -14 -10 -7 -10 -13 2 -29 22 -29 18 -34 -20 -34 l-35 0 16 26 c15 22 15
27 3 35 -12 7 -12 10 0 18 11 7 10 13 -4 35 l-17 26 36 0 c20 0 36 -3 36 -8z
m-1687 -64 c-3 -16 -9 -28 -14 -28 -16 0 -27 44 -17 64 15 27 38 0 31 -36z
m1260 40 c6 -18 2 -64 -6 -60 -4 1 -11 2 -17 2 -11 0 -14 53 -3 63 10 11 20 8
26 -5z"/>
<path d="M742 2323 c410 -2 1085 -2 1500 0 414 1 78 2 -747 2 -825 0 -1164 -1
-753 -2z"/>
<path d="M5 2290 c8 -13 2985 -12 2985 1 0 5 -598 9 -1496 9 -978 0 -1493 -3
-1489 -10z"/>
<path d="M14 2255 c11 -8 29 -13 40 -9 15 4 17 3 7 -4 -8 -6 -9 -12 -3 -16 6
-3 13 -2 17 4 12 20 33 11 27 -12 -8 -33 -32 -48 -55 -36 -10 5 -21 7 -24 4
-3 -3 6 -11 20 -17 21 -9 30 -9 42 1 13 11 15 9 15 -13 0 -50 -60 -61 -81 -14
-8 19 -9 19 -4 -5 3 -16 1 -28 -5 -28 -5 0 -10 -4 -10 -10 0 -7 504 -10 1493
-10 l1494 0 1 65 c1 40 -3 65 -10 65 -5 0 -7 -7 -4 -16 3 -8 2 -12 -4 -9 -17
10 -12 48 5 41 10 -4 15 1 15 14 0 20 -15 20 -1497 20 -1322 -1 -1496 -2
-1479 -15z m689 -20 c23 23 34 18 29 -13 -8 -57 -82 -61 -82 -5 0 12 -4 25
-10 28 -6 3 -10 -5 -10 -19 0 -14 -9 -31 -22 -40 -19 -13 -25 -14 -42 -2 -11
7 -23 24 -27 39 -6 21 -4 25 10 20 9 -3 21 -10 26 -14 6 -4 21 1 35 11 24 18
25 18 51 -1 24 -17 29 -18 42 -4z m133 9 c12 4 14 1 9 -14 -4 -11 -2 -20 4
-20 6 0 11 7 11 15 0 17 16 20 25 5 4 -7 12 -7 25 0 27 14 30 13 30 -13 0 -34
-37 -49 -68 -29 -21 14 -26 14 -51 -1 -25 -15 -30 -15 -49 -1 -13 9 -22 26
-22 40 0 23 1 24 23 9 27 -18 42 -9 24 14 -11 14 -10 14 5 2 10 -7 25 -11 34
-7z m-481 -8 c17 -12 22 -12 39 0 11 8 24 14 27 14 14 0 -8 -54 -27 -66 -17
-11 -24 -11 -49 6 -17 11 -24 20 -17 20 10 0 10 5 2 20 -12 23 -2 26 25 6z
m165 -20 c0 -12 -9 -27 -20 -34 -26 -16 -60 3 -60 35 0 20 4 22 32 16 22 -4
29 -3 24 5 -5 8 -2 10 8 6 9 -3 16 -16 16 -28z m495 14 c11 17 25 11 25 -11 0
-55 -74 -53 -82 1 -4 28 -4 28 23 14 18 -9 30 -10 34 -4z m80 -1 c6 -4 17 -4
25 1 23 15 30 12 30 -13 0 -34 -39 -50 -67 -28 -27 21 -38 62 -14 54 9 -3 21
-10 26 -14z m205 6 c16 -8 31 -11 35 -6 3 5 -3 11 -12 14 -10 2 -1 4 19 3 23
-1 33 -5 27 -10 -5 -6 -9 -18 -9 -28 0 -9 -8 -21 -17 -26 -22 -13 -63 6 -63
29 0 9 -7 19 -15 23 -10 4 -15 -1 -15 -16 0 -11 -8 -26 -17 -33 -25 -18 -63 1
-63 32 0 26 3 27 30 13 13 -7 21 -6 30 5 16 19 33 19 70 0z m325 -3 c3 -10 10
-10 24 -2 27 14 31 13 31 -9 0 -24 -37 -51 -59 -44 -13 5 -14 3 -4 -7 10 -10
18 -11 37 -2 21 9 24 8 28 -13 4 -19 -1 -26 -24 -36 -21 -9 -31 -9 -42 0 -11
9 -15 9 -19 -1 -2 -7 -7 -11 -10 -8 -3 3 1 22 8 43 7 21 9 40 4 43 -5 3 -7 10
-3 15 3 5 0 16 -6 24 -9 11 -8 14 9 12 11 -1 23 -7 26 -15z m99 3 c19 -15 41
-11 31 6 -3 5 1 6 9 3 23 -9 20 -47 -4 -62 -27 -17 -57 2 -62 40 -5 32 -1 34
26 13z m111 -6 c6 -4 17 -4 25 1 23 14 30 12 30 -9 0 -11 -10 -27 -22 -35 -19
-13 -25 -14 -42 -2 -11 7 -23 24 -27 39 -6 21 -4 25 10 20 9 -3 21 -10 26 -14z
m265 -6 c0 -12 -10 -29 -22 -37 -19 -13 -25 -14 -43 -2 -11 7 -21 23 -23 35
-4 24 1 25 28 11 13 -7 21 -7 26 2 4 7 3 8 -4 4 -7 -4 -12 -3 -12 2 0 6 11 9
25 8 19 -1 25 -7 25 -23z m76 12 c27 21 31 18 26 -14 -8 -59 -73 -57 -84 2 -5
27 -5 27 17 13 20 -13 25 -13 41 -1z m71 0 c12 -12 18 -13 29 -4 19 15 21 12
29 -41 6 -38 3 -48 -14 -64 -29 -26 -71 -8 -71 29 0 29 3 30 30 13 16 -10 23
-10 37 5 10 9 12 17 6 17 -7 0 -14 -4 -18 -10 -3 -6 -15 -5 -30 2 -18 8 -25
19 -25 40 0 32 5 34 27 13z m303 5 c9 -5 19 -5 27 2 10 8 12 7 7 -5 -5 -15 -3
-15 25 -1 28 14 34 14 54 1 19 -12 27 -13 47 -2 20 11 30 11 56 0 25 -10 34
-10 49 1 23 17 44 19 27 2 -7 -7 -12 -18 -12 -26 0 -8 -8 -21 -17 -27 -23 -17
-50 -3 -65 33 l-12 27 -3 -26 c-8 -53 -83 -54 -83 0 0 11 -4 21 -10 21 -5 0
-10 -9 -10 -19 0 -28 -38 -53 -62 -40 -10 5 -23 7 -28 4 -5 -3 -11 -1 -15 5
-3 5 -1 10 4 10 6 0 11 8 11 18 0 10 -7 19 -15 19 -8 0 -15 -9 -15 -20 0 -11
-8 -25 -17 -32 -25 -18 -63 1 -63 32 0 25 7 28 29 14 10 -6 22 -5 35 5 24 16
35 17 56 4z m341 1 c-7 -5 -9 -11 -4 -14 5 -3 15 -2 23 4 23 14 30 11 30 -15
0 -25 -29 -43 -60 -37 -12 2 -12 0 -3 -10 10 -10 18 -10 38 -1 23 11 25 10 25
-13 0 -36 -42 -55 -69 -31 -15 14 -18 23 -11 42 6 14 6 26 0 29 -18 11 10 55
35 55 6 0 4 -4 -4 -9z m-2735 -12 c4 -8 9 -8 17 0 19 19 37 12 37 -12 0 -32
-39 -50 -65 -30 -23 16 -29 53 -9 53 7 0 16 -5 20 -11z m104 1 c13 -7 21 -7
25 0 11 17 25 11 25 -11 0 -12 -8 -27 -17 -34 -25 -18 -63 1 -63 32 0 26 3 27
30 13z m1155 0 c4 -7 13 -6 26 1 25 13 26 11 29 -21 5 -61 0 -80 -25 -92 -20
-9 -28 -8 -44 6 -25 23 -17 60 10 45 13 -7 25 -6 40 1 25 14 18 25 -8 12 -27
-13 -59 7 -55 36 4 23 16 29 27 12z m105 0 c13 -7 21 -7 25 0 11 17 25 11 25
-11 0 -12 -8 -27 -17 -34 -25 -18 -63 1 -63 32 0 26 3 27 30 13z m415 0 c4 -7
12 -7 25 0 27 14 30 13 30 -13 0 -31 -38 -50 -63 -32 -9 7 -17 22 -17 34 0 22
14 28 25 11z m420 0 c4 -7 12 -7 25 0 27 14 30 13 30 -13 0 -48 -65 -52 -82
-5 -10 25 13 40 27 18z m-1281 -61 c3 0 12 -2 20 -5 8 -3 24 -1 35 6 19 9 21
8 21 -14 0 -35 -34 -53 -66 -35 -13 7 -24 18 -24 25 0 7 -3 21 -6 31 -4 13 -3
14 4 5 5 -8 12 -13 16 -13z m-926 -1 c9 -9 18 -9 37 0 23 11 25 10 25 -13 0
-15 -8 -29 -21 -36 -30 -15 -69 6 -69 38 0 25 10 29 28 11z m141 2 c14 7 22 7
26 0 8 -13 -21 -60 -36 -60 -25 0 -49 22 -49 46 0 22 2 23 20 14 14 -7 26 -8
39 0z m103 -2 c20 20 29 14 26 -21 -1 -27 -6 -32 -27 -34 -14 -1 -32 4 -39 10
-10 8 -16 7 -23 -4 -7 -9 -8 -5 -3 16 10 43 13 46 34 33 15 -10 22 -10 32 0z
m108 2 c18 9 20 8 20 -14 0 -32 -32 -51 -60 -36 -12 6 -20 21 -20 36 0 22 2
23 20 14 14 -8 26 -8 40 0z m70 -2 c15 -10 22 -10 32 0 19 19 26 14 30 -23 3
-23 1 -32 -6 -25 -6 6 -14 6 -22 -1 -8 -6 -23 -7 -36 -3 -13 4 -26 7 -29 7 -3
-1 -3 11 -1 28 5 33 5 33 32 17z m140 2 c18 9 20 8 20 -14 0 -50 -70 -56 -83
-7 -6 26 1 33 24 20 13 -6 25 -6 39 1z m68 -2 c10 -10 17 -10 31 -1 10 7 22 9
25 6 14 -14 5 -40 -18 -52 -32 -17 -66 0 -66 34 0 27 9 32 28 13z m142 2 c18
9 20 8 20 -15 0 -17 -8 -29 -25 -37 -31 -14 -55 3 -55 39 0 21 3 22 20 13 14
-8 26 -8 40 0z m105 0 c13 11 15 9 15 -13 0 -13 -7 -30 -15 -37 -24 -20 -65 3
-65 35 0 23 2 24 25 13 19 -8 28 -8 40 2z m205 0 c18 9 20 8 20 -15 0 -16 6
-25 16 -25 8 0 12 -5 8 -11 -4 -8 -9 -8 -17 0 -7 7 -14 7 -24 -1 -22 -18 -63
6 -63 37 0 23 2 24 20 15 14 -8 26 -8 40 0z m78 -2 c10 -10 17 -10 32 0 26 16
28 16 28 -12 0 -36 -40 -54 -72 -33 -17 11 -23 22 -19 37 6 23 14 25 31 8z
m203 2 c13 -8 25 -7 39 0 17 9 20 8 20 -13 0 -56 -72 -58 -82 -3 -6 29 -4 30
23 16z m249 0 c18 9 20 8 20 -14 0 -32 -32 -51 -60 -36 -12 6 -20 21 -20 36 0
22 2 23 20 14 14 -8 26 -8 40 0z m68 -2 c10 -10 17 -10 32 0 27 17 30 16 30
-13 0 -28 -23 -44 -61 -42 -21 2 -26 7 -27 34 -3 35 6 41 26 21z m142 2 c18 9
20 8 20 -14 0 -31 -32 -51 -59 -37 -10 6 -20 8 -23 6 -2 -3 -3 9 0 25 4 25 7
28 23 19 13 -6 25 -6 39 1z m68 -2 c10 -10 17 -10 32 0 27 17 30 15 30 -11 0
-32 -39 -53 -69 -38 -13 7 -21 21 -21 36 0 27 9 32 28 13z m142 2 c18 9 20 8
20 -14 0 -32 -32 -51 -60 -36 -12 6 -20 21 -20 36 0 22 2 23 20 14 14 -8 26
-8 40 0z m205 -2 c23 11 25 10 25 -13 0 -36 -42 -55 -69 -31 -16 15 -18 24
-12 55 1 2 8 -2 16 -9 12 -10 21 -10 40 -2z m107 0 c31 31 38 -3 9 -39 -16
-21 -22 -22 -45 -11 -18 8 -26 19 -26 37 0 23 2 24 25 13 19 -9 28 -9 37 0z
m110 0 c18 18 28 14 28 -11 0 -32 -39 -53 -68 -38 -14 7 -23 8 -27 1 -16 -25
-21 -6 -6 24 14 29 19 32 39 23 16 -8 26 -7 34 1z m108 2 c18 9 20 8 20 -14 0
-32 -32 -51 -60 -36 -12 6 -20 21 -20 36 0 22 2 23 20 14 14 -8 26 -8 40 0z
m105 0 c13 11 15 9 15 -13 0 -13 -7 -30 -15 -37 -24 -20 -65 3 -65 35 0 23 2
24 25 13 19 -8 28 -8 40 2z"/>
<path d="M2130 2209 c0 -11 29 -19 45 -13 25 10 17 21 -15 20 -16 -1 -30 -4
-30 -7z"/>
<path d="M662 2150 c6 -19 50 -20 56 -2 3 11 0 12 -15 3 -14 -7 -23 -7 -33 2
-10 9 -12 9 -8 -3z"/>
<path d="M1182 2148 c6 -18 50 -17 56 2 4 12 2 12 -8 3 -10 -9 -19 -9 -33 -2
-15 9 -18 8 -15 -3z"/>
<path d="M2132 2150 c6 -19 50 -20 56 -2 3 11 0 12 -15 3 -14 -7 -23 -7 -33 2
-10 9 -12 9 -8 -3z"/>
<path d="M2342 2150 c6 -19 50 -20 56 -2 3 11 0 12 -15 3 -14 -7 -23 -7 -33 2
-10 9 -12 9 -8 -3z"/>
<path d="M2442 2148 c6 -18 50 -17 56 2 4 12 2 12 -8 3 -10 -9 -19 -9 -33 -2
-15 9 -18 8 -15 -3z"/>
<path d="M1488 2063 c-974 -2 -1488 -6 -1488 -13 0 -6 517 -11 1495 -12 1418
-3 1495 -2 1495 15 0 9 -3 16 -7 15 -5 -2 -677 -4 -1495 -5z"/>
<path d="M1493 2013 c-893 -2 -1493 -7 -1493 -12 0 -5 6 -11 13 -14 9 -4 9 -7
-1 -18 -19 -20 -15 -56 8 -62 27 -7 25 -35 -2 -40 -13 -2 644 -5 1459 -6 815
0 1488 -4 1497 -7 12 -5 15 7 15 80 -1 47 -1 85 -2 84 -1 -2 -674 -4 -1494 -5z
m-1069 -32 c-28 -20 -35 -40 -22 -60 7 -12 21 -21 30 -21 10 0 18 -7 18 -15 0
-16 -17 -19 -44 -9 -9 3 -13 10 -10 15 3 5 -1 9 -8 10 -7 1 -21 2 -32 3 -24 1
-41 28 -33 50 4 11 18 16 42 16 22 0 38 6 41 15 4 8 11 12 16 9 6 -4 6 -9 2
-13z m146 4 c11 -13 10 -14 -1 -10 -19 7 -44 -34 -30 -48 19 -19 12 -26 -25
-24 -67 4 -75 67 -9 67 22 0 38 6 41 15 8 19 9 19 24 0z m1130 -6 c0 -4 -6 -6
-13 -4 -18 7 -42 -34 -28 -48 19 -19 12 -25 -24 -25 -40 0 -59 18 -50 48 5 15
15 20 41 20 21 0 37 6 40 14 6 15 34 11 34 -5z m-1440 -24 c-10 -12 -10 -19
-2 -27 20 -20 14 -26 -23 -26 -68 0 -77 59 -10 68 48 7 52 5 35 -15z m560 0
c-10 -12 -10 -19 -2 -27 20 -20 14 -26 -23 -26 -68 0 -77 59 -10 68 48 7 52 5
35 -15z m139 -1 c-9 -11 -9 -18 -1 -26 20 -20 14 -26 -23 -26 -64 0 -77 59
-15 69 43 6 55 2 39 -17z m140 0 c-9 -11 -9 -18 -1 -26 20 -20 14 -26 -23 -26
-64 0 -77 59 -15 69 43 6 55 2 39 -17z m421 1 c-10 -12 -10 -19 -2 -27 20 -20
14 -26 -23 -26 -68 0 -75 64 -7 70 46 4 48 2 32 -17z m1400 0 c-10 -12 -10
-19 -2 -27 19 -19 14 -24 -23 -25 -68 -2 -75 63 -7 69 46 4 48 2 32 -17z
m-2800 0 c-10 -12 -10 -19 -2 -27 20 -20 13 -27 -24 -25 -72 4 -74 67 -3 67
36 0 40 -2 29 -15z m560 0 c-10 -12 -10 -19 -2 -27 20 -20 13 -27 -24 -25 -72
4 -74 67 -3 67 36 0 40 -2 29 -15z m560 0 c-10 -12 -10 -19 -2 -27 20 -20 13
-27 -24 -25 -72 4 -74 67 -3 67 36 0 40 -2 29 -15z m140 0 c-10 -12 -10 -19
-2 -27 19 -19 14 -24 -23 -25 -40 -1 -59 17 -50 47 5 16 15 20 47 20 35 0 39
-2 28 -15z m421 1 c-15 -18 7 -59 26 -52 17 7 24 -7 12 -24 -8 -13 -12 -12
-24 4 -9 12 -26 19 -44 18 -35 -1 -55 19 -46 48 5 16 15 20 47 20 34 0 39 -2
29 -14z m139 -1 c-10 -12 -10 -19 -2 -27 20 -20 14 -25 -24 -24 -72 2 -75 66
-3 66 36 0 40 -2 29 -15z m141 1 c-15 -18 5 -57 25 -49 6 2 15 -1 19 -8 6 -9
1 -10 -21 -5 -16 4 -41 8 -56 7 -33 0 -52 21 -43 49 5 16 15 20 47 20 34 0 39
-2 29 -14z m139 -1 c-10 -12 -10 -19 -2 -27 20 -20 14 -25 -24 -24 -72 2 -75
66 -3 66 36 0 40 -2 29 -15z m140 0 c-10 -12 -10 -19 -2 -27 20 -20 13 -27
-24 -25 -72 4 -74 67 -3 67 36 0 40 -2 29 -15z m140 0 c-15 -18 -1 -40 31 -50
10 -4 19 -10 19 -15 0 -12 -39 -19 -47 -8 -4 7 -1 8 8 3 11 -6 11 -5 3 4 -7 7
-26 13 -44 14 -36 2 -57 25 -47 51 5 11 19 16 48 16 36 0 40 -2 29 -15z m141
1 c-17 -20 5 -55 30 -49 13 4 18 0 16 -16 -2 -26 -11 -27 -37 -1 -14 14 -28
18 -43 15 -29 -8 -51 16 -42 45 5 16 15 20 47 20 34 0 39 -2 29 -14z m139 -1
c-10 -12 -10 -19 -2 -27 19 -19 14 -24 -23 -25 -40 -1 -59 17 -50 47 5 16 15
20 47 20 35 0 39 -2 28 -15z m-2600 -74 c0 -7 -16 -8 -54 -2 -5 0 -3 8 4 16 9
11 17 12 31 4 10 -5 19 -13 19 -18z m126 18 c10 -17 -9 -29 -34 -22 -21 5 -21
6 -5 19 22 16 30 17 39 3z m278 -5 c9 -23 3 -26 -28 -18 -25 6 -25 7 -9 20 24
18 30 17 37 -2z m139 -15 c-7 -7 -20 -8 -30 -5 -17 7 -17 8 1 22 23 17 48 2
29 -17z m145 8 c2 -11 -3 -17 -16 -17 -26 0 -34 11 -20 27 14 17 32 12 36 -10z
m138 0 c2 -16 -2 -16 -45 -8 -2 1 2 8 9 16 16 19 32 15 36 -8z m284 -3 c0 -8
-9 -14 -20 -14 -19 0 -27 19 -14 33 10 9 34 -4 34 -19z m137 18 c22 -14 -2
-34 -31 -26 -25 6 -25 7 -9 20 21 16 24 16 40 6z m148 -2 c3 -5 -1 -10 -10
-10 -9 0 -13 -4 -10 -10 3 -5 -2 -10 -13 -10 -30 0 -35 13 -10 27 28 15 35 16
43 3z m135 0 c0 -5 -6 -10 -12 -10 -9 0 -8 -4 2 -10 12 -8 11 -10 -6 -10 -28
0 -36 10 -23 27 13 15 39 18 39 3z m273 -16 c-7 -18 -33 -18 -33 -1 0 19 10
27 25 20 8 -2 11 -11 8 -19z m284 1 c0 -17 -3 -17 -35 -9 -21 6 -21 7 -5 19
20 15 40 10 40 -10z m141 7 c5 -15 -23 -26 -45 -18 -14 6 -14 8 3 21 21 16 36
15 42 -3z m416 10 c9 -15 -12 -35 -29 -28 -14 5 -15 9 -5 21 14 17 26 19 34 7z
m-1672 -9 c-6 -2 -10 -9 -6 -14 6 -10 -17 -12 -41 -3 -23 9 0 24 35 23 14 0
19 -3 12 -6z"/>
<path d="M0 1820 c0 -5 9 -10 21 -10 11 0 17 -4 14 -10 -3 -5 -1 -10 4 -10 15
0 14 -27 -2 -33 -7 -3 -5 -6 6 -6 9 -1 17 -8 17 -16 0 -12 15 -15 78 -14 54 1
69 3 52 9 -24 8 -24 8 -2 9 12 1 22 5 22 9 0 14 61 1 67 -14 4 -10 25 -14 82
-13 42 0 70 3 63 6 -22 9 6 31 33 25 31 -5 32 -19 3 -25 -13 -2 22 -5 77 -5
64 0 93 2 80 8 -17 7 -17 9 -2 9 9 1 17 5 17 9 0 5 14 7 30 4 17 -2 30 -10 30
-18 0 -11 18 -14 78 -13 43 1 67 4 54 8 -23 6 -23 6 5 17 31 11 73 2 73 -16 0
-6 30 -10 78 -9 56 1 69 3 47 9 l-30 8 33 1 c17 0 32 5 32 10 0 5 14 4 31 -2
l31 -12 -28 -6 c-16 -4 16 -7 71 -6 55 0 90 2 78 4 -39 7 -25 18 27 21 48 3
70 -11 33 -21 -10 -3 25 -5 77 -5 58 0 87 3 75 8 -19 7 -18 8 7 15 29 8 68 -1
68 -16 0 -5 37 -8 83 -8 54 1 72 4 52 8 l-30 7 25 9 c25 9 43 9 70 -2 12 -4
11 -7 -5 -13 -12 -5 16 -9 75 -9 62 0 88 3 75 9 -14 6 -16 9 -5 10 8 2 18 2
23 1 4 0 7 3 7 8 0 14 41 0 47 -15 4 -10 26 -14 87 -13 53 1 71 4 51 8 l-30 7
25 7 c42 11 80 8 86 -8 5 -12 23 -15 83 -14 56 1 68 3 46 9 -31 8 -24 11 35
15 46 3 63 -8 25 -16 -17 -4 14 -7 70 -7 64 0 91 3 75 8 -23 7 -23 8 -3 9 12
1 25 6 28 11 4 6 10 8 15 5 4 -3 6 4 3 15 -4 14 0 20 12 20 12 0 16 -6 12 -19
-3 -12 1 -22 12 -27 12 -6 9 -9 -14 -14 -19 -5 4 -8 65 -8 61 0 88 2 75 8 -11
5 -14 9 -7 11 23 3 27 4 37 10 13 9 55 -7 55 -21 0 -6 38 -10 100 -10 93 0
100 1 100 20 0 11 -7 20 -15 20 -8 0 -15 5 -15 10 0 6 7 13 15 16 8 4 15 15
15 25 0 19 -35 19 -1495 19 -990 0 -1495 -3 -1495 -10z m120 -15 c0 -8 9 -15
20 -15 11 0 20 -7 20 -15 0 -9 -9 -15 -21 -15 -15 0 -19 -5 -15 -15 3 -9 0
-15 -9 -15 -8 0 -15 7 -15 15 0 8 -9 15 -20 15 -11 0 -20 7 -20 15 0 8 9 15
20 15 11 0 20 7 20 15 0 8 5 15 10 15 6 0 10 -7 10 -15z m213 -4 c-2 -6 6 -11
17 -11 11 0 20 -7 20 -15 0 -9 -9 -15 -21 -15 -15 0 -19 -5 -15 -15 3 -9 0
-15 -9 -15 -8 0 -15 7 -15 15 0 8 -9 15 -20 15 -11 0 -20 7 -20 15 0 8 9 15
20 15 12 0 20 7 20 16 0 9 6 14 13 11 6 -2 11 -10 10 -16z m213 4 c-4 -10 1
-15 14 -15 11 0 20 -7 20 -15 0 -9 -9 -15 -21 -15 -15 0 -19 -5 -15 -15 3 -9
0 -15 -9 -15 -8 0 -15 7 -15 15 0 8 -9 15 -20 15 -11 0 -20 7 -20 15 0 8 9 15
20 15 11 0 20 7 20 15 0 8 7 15 16 15 10 0 14 -6 10 -15z m214 0 c0 -8 7 -15
15 -15 8 0 15 -7 15 -15 0 -8 -7 -15 -15 -15 -8 0 -15 -7 -15 -15 0 -8 -7 -15
-15 -15 -8 0 -15 7 -15 15 0 8 -9 15 -20 15 -11 0 -20 7 -20 15 0 8 9 15 20
15 11 0 20 7 20 15 0 8 7 15 15 15 8 0 15 -7 15 -15z m206 0 c-4 -10 1 -15 14
-15 11 0 20 -7 20 -15 0 -8 -9 -15 -20 -15 -13 0 -18 -5 -14 -15 4 -9 0 -15
-10 -15 -9 0 -16 7 -16 15 0 8 -9 15 -20 15 -11 0 -20 7 -20 15 0 8 9 15 20
15 11 0 20 7 20 15 0 8 7 15 16 15 10 0 14 -6 10 -15z m214 0 c0 -8 7 -15 15
-15 8 0 15 -7 15 -15 0 -8 -7 -15 -15 -15 -8 0 -15 -7 -15 -15 0 -8 -7 -15
-15 -15 -8 0 -15 7 -15 15 0 8 -9 15 -20 15 -11 0 -20 7 -20 15 0 8 9 15 20
15 11 0 20 7 20 15 0 8 7 15 15 15 8 0 15 -7 15 -15z m206 0 c-4 -10 1 -15 14
-15 11 0 20 -7 20 -15 0 -8 -7 -15 -15 -15 -8 0 -15 -7 -15 -15 0 -8 -7 -15
-15 -15 -8 0 -15 7 -15 15 0 8 -9 15 -20 15 -11 0 -20 7 -20 15 0 8 9 15 20
15 11 0 20 7 20 15 0 8 7 15 16 15 10 0 14 -6 10 -15z m214 0 c0 -8 7 -15 15
-15 8 0 15 -7 15 -15 0 -8 -7 -15 -15 -15 -8 0 -15 -7 -15 -15 0 -8 -7 -15
-15 -15 -8 0 -15 7 -15 15 0 8 -9 15 -20 15 -11 0 -20 7 -20 15 0 8 9 15 20
15 11 0 20 7 20 15 0 8 7 15 15 15 8 0 15 -7 15 -15z m206 0 c-4 -10 1 -15 14
-15 11 0 20 -7 20 -15 0 -8 -7 -15 -15 -15 -8 0 -15 -7 -15 -15 0 -8 -7 -15
-15 -15 -8 0 -15 7 -15 15 0 8 -9 15 -20 15 -11 0 -20 7 -20 15 0 8 9 15 20
15 11 0 20 7 20 15 0 8 7 15 16 15 10 0 14 -6 10 -15z m214 0 c0 -8 7 -15 15
-15 8 0 15 -7 15 -15 0 -8 -7 -15 -15 -15 -8 0 -15 -7 -15 -15 0 -8 -7 -15
-15 -15 -8 0 -15 7 -15 15 0 8 -9 15 -20 15 -11 0 -20 7 -20 15 0 8 9 15 20
15 11 0 20 7 20 15 0 8 7 15 15 15 8 0 15 -7 15 -15z m210 0 c0 -8 7 -15 15
-15 8 0 15 -7 15 -15 0 -8 -7 -15 -15 -15 -8 0 -15 -7 -15 -15 0 -8 -7 -15
-15 -15 -8 0 -15 7 -15 15 0 8 -9 15 -20 15 -11 0 -20 7 -20 15 0 8 9 15 20
15 11 0 20 7 20 15 0 8 7 15 15 15 8 0 15 -7 15 -15z m210 0 c0 -8 7 -15 15
-15 8 0 15 -7 15 -15 0 -8 -7 -15 -15 -15 -8 0 -15 -7 -15 -15 0 -8 -7 -15
-15 -15 -8 0 -15 7 -15 15 0 14 -21 19 -60 16 -19 -2 -44 36 -30 44 6 3 10 0
10 -8 0 -8 9 -13 23 -11 12 1 30 3 40 3 9 1 17 8 17 16 0 8 7 15 15 15 8 0 15
-7 15 -15z m206 0 c-4 -10 1 -15 14 -15 11 0 20 -7 20 -15 0 -8 -9 -15 -20
-15 -13 0 -18 -5 -14 -15 4 -9 0 -15 -10 -15 -9 0 -16 7 -16 15 0 8 -9 15 -20
15 -11 0 -20 7 -20 15 0 8 9 15 20 15 11 0 20 7 20 15 0 8 7 15 16 15 10 0 14
-6 10 -15z m214 0 c0 -8 7 -15 15 -15 8 0 15 -7 15 -15 0 -8 -7 -15 -15 -15
-8 0 -15 -7 -15 -15 0 -8 -7 -15 -15 -15 -8 0 -15 7 -15 15 0 8 -9 15 -20 15
-11 0 -20 7 -20 15 0 8 9 15 20 15 11 0 20 7 20 15 0 8 7 15 15 15 8 0 15 -7
15 -15z m-2614 -15 c8 0 14 -7 14 -15 0 -8 -7 -15 -15 -15 -8 0 -15 4 -15 9 0
5 -2 15 -3 23 -2 7 -2 10 0 6 3 -5 11 -8 19 -8z m210 0 c8 0 14 -7 14 -15 0
-8 -7 -15 -15 -15 -8 0 -15 7 -15 15 0 8 -5 15 -11 15 -5 0 -7 5 -3 12 6 9 9
9 12 0 2 -7 10 -12 18 -12z m420 0 c8 0 14 -7 14 -15 0 -8 -7 -15 -15 -15 -8
0 -15 4 -15 9 0 5 -2 15 -3 23 -2 7 -2 10 0 6 3 -5 11 -8 19 -8z m210 0 c8 0
14 -7 14 -15 0 -8 -7 -15 -15 -15 -8 0 -15 7 -15 15 0 8 -5 15 -11 15 -5 0 -7
5 -3 12 6 9 9 9 12 0 2 -7 10 -12 18 -12z"/>
<path d="M2960 1704 c-8 -2 -105 -5 -215 -6 l-200 -3 0 -55 c0 -30 -6 -64 -12
-75 -15 -24 -16 -18 -17 70 l-1 60 -612 2 c-398 2 -613 -1 -613 -7 0 -6 16
-10 35 -10 39 0 42 -6 20 -37 -12 -16 -12 -23 -2 -26 9 -4 9 -8 -2 -15 -11 -8
-11 -14 3 -33 23 -33 20 -39 -19 -39 -39 0 -42 6 -19 39 14 19 14 25 3 32 -10
7 -11 11 -2 17 8 5 6 14 -8 32 l-20 25 7 -27 c4 -19 -1 -41 -15 -69 -12 -23
-21 -42 -19 -43 21 -13 64 -26 84 -26 23 0 24 -1 10 -16 -24 -23 -66 -31 -113
-22 -53 11 -63 33 -20 44 l32 8 -37 3 -38 4 15 30 c19 35 28 36 48 7 l16 -23
1 25 c1 14 3 41 5 60 8 76 64 69 -610 70 -393 0 -606 -3 -610 -10 -4 -6 8 -10
29 -10 39 0 43 -5 21 -34 -12 -16 -12 -22 -2 -28 9 -6 9 -10 -2 -17 -11 -7
-11 -13 3 -32 23 -33 20 -39 -19 -39 -40 0 -40 1 -20 40 14 27 14 30 0 30 -8
0 -20 -11 -26 -24 -16 -35 3 -66 43 -66 30 0 31 0 13 -20 -10 -11 -25 -20 -34
-21 -10 0 -12 -2 -3 -6 17 -7 15 -33 -2 -33 -8 0 -17 8 -19 18 -4 15 -5 15 -6
-1 -1 -11 8 -21 20 -24 20 -6 20 -7 -7 -19 -38 -16 -185 -14 1519 -17 l1447
-2 0 23 c0 13 -6 22 -15 22 -8 0 -15 7 -15 15 0 8 7 15 15 15 13 0 15 21 15
125 0 69 -3 124 -7 124 -5 -1 -15 -3 -23 -5z m-2770 -29 c0 -3 -7 -17 -16 -30
-10 -15 -12 -25 -5 -25 6 0 11 -4 11 -10 0 -5 -15 -10 -32 -9 -28 0 -30 2 -16
12 15 10 15 13 -3 39 l-20 28 40 0 c23 0 41 -2 41 -5z m75 -21 c-13 -20 -14
-28 -4 -40 9 -12 6 -14 -21 -14 -27 0 -30 2 -21 14 10 12 9 20 -4 40 l-17 26
42 0 42 0 -17 -26z m85 -6 c-18 -31 -19 -33 -2 -40 16 -6 16 -7 -1 -7 -17 -1
-17 -3 3 -36 l22 -35 -41 0 c-47 0 -47 1 -24 37 14 21 15 27 4 31 -10 3 -10 6
-1 12 9 6 8 15 -4 39 l-17 31 41 0 40 0 -20 -32z m100 24 c0 -5 -7 -17 -15
-28 -16 -22 -20 -38 -6 -29 5 3 12 1 16 -5 4 -6 -6 -10 -24 -10 -17 0 -31 5
-31 11 0 5 5 7 10 4 15 -9 12 8 -5 31 -22 29 -18 34 20 34 19 0 35 -4 35 -8z
m90 3 c0 -3 -8 -18 -17 -32 -14 -21 -15 -27 -4 -31 10 -3 11 -6 1 -12 -10 -6
-9 -13 4 -31 23 -33 20 -39 -19 -39 -40 0 -42 5 -18 40 12 17 13 25 5 28 -7 2
-12 8 -12 13 0 6 5 7 10 4 15 -9 12 8 -5 31 -22 29 -18 34 20 34 19 0 35 -2
35 -5z m90 -2 c0 -5 -7 -17 -15 -27 -17 -23 -20 -40 -5 -31 6 3 10 1 10 -4 0
-6 -14 -11 -31 -11 -18 0 -28 4 -24 10 4 6 11 8 16 5 14 -9 10 7 -6 29 -22 29
-19 36 20 36 19 0 35 -3 35 -7z m75 -19 c-13 -20 -14 -28 -4 -40 9 -12 6 -14
-21 -14 -28 0 -31 2 -20 15 10 12 9 20 -4 40 l-16 25 41 0 41 0 -17 -26z m84
-11 c-13 -20 -18 -33 -12 -30 7 4 14 3 18 -3 4 -6 -7 -10 -26 -10 -25 0 -30 3
-22 11 9 9 8 19 -3 40 l-15 29 42 0 41 0 -23 -37z m92 9 c-18 -26 -18 -29 -3
-39 16 -11 16 -12 -1 -12 -16 -1 -16 -3 -2 -31 20 -39 20 -40 -20 -40 -40 0
-41 2 -18 36 14 22 14 27 2 36 -11 7 -11 11 -2 15 10 3 9 11 -2 34 l-16 29 41
0 41 0 -20 -28z m99 20 c0 -4 -7 -17 -15 -29 -12 -17 -12 -23 -2 -27 9 -5 9
-7 0 -12 -10 -4 -9 -12 2 -34 20 -39 20 -40 -20 -40 -39 0 -42 6 -19 39 14 19
14 25 3 33 -11 7 -11 11 -2 15 10 3 10 10 -2 26 -22 31 -19 37 20 37 19 0 35
-3 35 -8z m90 3 c0 -3 -8 -18 -17 -32 -14 -21 -15 -27 -4 -31 11 -4 11 -6 0
-12 -10 -7 -9 -14 4 -34 23 -34 22 -36 -18 -36 -40 0 -40 1 -20 40 12 23 13
30 3 30 -10 0 -10 3 1 9 11 7 11 13 -3 32 -23 33 -20 39 19 39 19 0 35 -2 35
-5z m74 -27 c-13 -24 -14 -33 -4 -36 10 -4 10 -6 -1 -12 -10 -7 -9 -14 4 -34
23 -34 22 -36 -18 -36 -38 0 -44 13 -19 45 13 18 13 20 -3 27 -17 6 -17 7 0 7
16 1 16 3 2 31 -20 39 -20 40 20 40 l36 0 -17 -32z m91 6 c-13 -20 -14 -28 -4
-40 9 -12 6 -14 -22 -14 -25 0 -30 3 -22 11 9 9 8 19 -3 40 l-15 29 42 0 41 0
-17 -26z m215 21 c0 -3 -7 -17 -16 -30 -10 -15 -12 -25 -5 -25 6 0 11 -4 11
-10 0 -5 -15 -10 -32 -9 -28 0 -30 2 -16 12 15 10 15 13 -3 39 l-20 28 40 0
c23 0 41 -2 41 -5z m75 -22 c-12 -18 -14 -28 -7 -31 24 -8 11 -22 -19 -22 -26
0 -29 2 -20 14 10 12 9 20 -4 40 l-17 26 42 0 42 0 -17 -27z m85 -8 c-20 -33
-21 -35 -3 -36 17 -1 17 -2 0 -6 -17 -4 -16 -7 3 -39 l22 -34 -41 0 -42 0 17
32 c13 24 14 33 4 36 -9 3 -9 6 1 13 11 7 11 14 -4 39 l-18 30 41 0 42 0 -22
-35z m100 27 c0 -5 -7 -17 -15 -28 -16 -22 -20 -38 -6 -29 5 3 12 1 16 -5 4
-6 -6 -10 -24 -10 -17 0 -31 5 -31 11 0 5 5 7 10 4 14 -9 12 1 -5 35 l-16 30
36 0 c19 0 35 -4 35 -8z m90 0 c0 -5 -7 -17 -15 -28 -17 -22 -20 -38 -5 -29 6
3 10 2 10 -4 0 -5 -5 -11 -12 -13 -8 -3 -7 -11 5 -28 24 -35 22 -40 -18 -40
-40 0 -42 5 -18 40 13 18 14 25 4 28 -11 4 -11 6 0 12 10 7 9 14 -4 34 -23 34
-22 36 18 36 19 0 35 -4 35 -8z m90 3 c0 -3 -8 -17 -17 -31 -14 -22 -14 -27
-2 -35 10 -6 7 -9 -13 -9 -16 0 -28 5 -28 11 0 5 5 7 10 4 15 -9 12 7 -5 29
-22 29 -19 36 20 36 19 0 35 -2 35 -5z m75 -24 c-10 -21 -12 -32 -4 -37 8 -4
7 -9 -2 -14 -10 -7 -9 -14 4 -34 23 -35 22 -36 -24 -36 l-41 0 22 35 c20 33
20 35 3 35 -16 1 -17 2 -2 13 15 11 15 15 3 32 -21 29 -17 35 21 35 l36 0 -16
-29z m84 -8 c-13 -20 -18 -33 -12 -30 7 4 14 3 18 -3 4 -6 -7 -10 -26 -10 -26
0 -29 2 -20 14 10 12 9 20 -4 40 l-17 26 42 0 42 0 -23 -37z m92 9 c-18 -26
-18 -29 -3 -39 16 -11 15 -12 -2 -12 -17 -1 -17 -2 -2 -26 24 -36 20 -45 -19
-45 -40 0 -41 2 -18 36 13 20 14 27 4 34 -9 5 -10 10 -2 14 8 5 6 16 -4 37
l-16 29 41 0 41 0 -20 -28z m99 20 c0 -4 -7 -17 -15 -29 -12 -17 -12 -23 -2
-27 9 -5 9 -7 0 -12 -10 -4 -9 -12 2 -34 20 -39 20 -40 -20 -40 -39 0 -42 6
-19 39 14 19 14 25 3 32 -11 7 -11 11 -2 17 10 6 10 12 -2 28 -22 29 -18 34
20 34 19 0 35 -3 35 -8z m90 3 c0 -3 -8 -18 -17 -32 -14 -21 -15 -27 -4 -31
10 -3 11 -6 1 -12 -10 -6 -9 -13 4 -31 23 -33 20 -39 -19 -39 -40 0 -40 1 -20
40 12 23 13 30 3 30 -10 0 -10 3 1 9 11 7 11 13 -3 32 -23 33 -20 39 19 39 19
0 35 -2 35 -5z m74 -27 c-13 -24 -14 -33 -4 -36 10 -4 10 -6 -1 -12 -10 -7 -9
-14 4 -34 23 -34 22 -36 -18 -36 -40 0 -40 1 -20 40 12 23 13 30 3 31 -10 0
-10 2 -1 6 10 3 9 11 -2 33 -20 39 -20 40 20 40 l36 0 -17 -32z m91 6 c-13
-20 -14 -28 -4 -40 9 -12 6 -14 -21 -14 -27 0 -30 2 -21 14 10 12 9 20 -4 40
l-17 26 42 0 42 0 -17 -26z m125 18 c0 -4 -7 -17 -15 -29 -12 -16 -12 -23 -2
-26 9 -4 9 -8 -2 -15 -11 -8 -11 -14 3 -33 23 -33 20 -39 -19 -39 -39 0 -42 6
-19 39 14 19 14 25 3 33 -11 7 -11 11 -2 15 10 3 10 10 -2 26 -22 31 -19 37
20 37 19 0 35 -3 35 -8z m90 3 c0 -3 -7 -17 -16 -30 -10 -15 -12 -25 -5 -25 6
0 11 -4 11 -10 0 -5 -15 -10 -32 -9 -28 0 -30 2 -16 12 15 10 15 13 -3 39
l-20 28 40 0 c23 0 41 -2 41 -5z m75 -25 c-9 -17 -11 -30 -5 -30 5 0 10 -4 10
-10 0 -5 -15 -10 -32 -9 -28 0 -30 2 -16 12 15 10 15 13 -3 39 l-20 28 41 0
41 0 -16 -30z m85 -5 c-20 -33 -21 -35 -3 -36 15 -1 16 -2 1 -6 -15 -4 -15 -7
4 -39 l20 -34 -41 0 -42 0 17 32 c13 24 14 33 4 36 -9 3 -9 6 1 13 11 7 11 14
-4 39 l-18 30 41 0 42 0 -22 -35z m100 27 c0 -5 -7 -17 -15 -28 -16 -22 -20
-38 -6 -29 5 3 12 1 16 -5 4 -6 -6 -10 -24 -10 -17 0 -31 5 -31 11 0 5 5 7 10
4 14 -9 12 1 -5 35 l-16 30 36 0 c19 0 35 -4 35 -8z m-2796 -107 c22 -33 21
-35 -19 -35 -39 0 -39 0 -23 35 14 31 21 31 42 0z m91 -5 l16 -30 -36 0 c-23
0 -34 -4 -30 -11 4 -6 21 -10 39 -9 58 3 61 2 38 -21 -27 -24 -85 -29 -126 -8
-42 20 -45 39 -7 39 24 0 36 8 53 35 13 19 26 35 30 35 4 0 14 -13 23 -30z
m173 5 c16 -35 16 -35 -23 -35 -40 0 -41 2 -19 35 21 31 28 31 42 0z m176 0
c22 -33 21 -35 -19 -35 -39 0 -39 0 -23 35 14 31 21 31 42 0z m90 0 c22 -34
21 -35 -25 -35 l-40 0 18 30 c21 36 26 37 47 5z m89 -5 l18 -30 -40 0 c-46 0
-47 1 -25 35 21 32 26 31 47 -5z m641 5 c22 -33 21 -35 -19 -35 -39 0 -39 0
-23 35 14 31 21 31 42 0z m91 -5 l16 -30 -41 0 -41 0 18 30 c9 17 21 30 25 30
4 0 14 -13 23 -30z m173 5 c16 -35 16 -35 -23 -35 -40 0 -41 2 -19 35 21 31
28 31 42 0z m192 -27 c0 -5 -16 -8 -35 -8 -39 0 -42 6 -19 39 l17 24 18 -24
c10 -13 19 -27 19 -31z m165 22 l16 -30 -41 0 -41 0 16 30 c9 17 20 30 25 30
5 0 16 -13 25 -30z m439 5 c22 -34 21 -35 -24 -35 l-41 0 16 30 c19 36 28 37
49 5z m200 3 c23 -32 20 -38 -19 -38 -39 0 -39 0 -23 35 14 31 22 31 42 3z
m90 -3 c22 -34 21 -35 -25 -35 l-40 0 18 30 c21 36 26 37 47 5z m174 0 c16
-35 16 -35 -23 -35 -40 0 -41 2 -19 35 21 31 28 31 42 0z m-361 -58 c13 5 13
2 4 -15 -7 -12 -18 -22 -25 -22 -9 0 -12 -7 -9 -20 4 -14 0 -20 -11 -20 -10 0
-14 -4 -11 -10 3 -5 -1 -10 -11 -10 -12 0 -14 4 -7 13 17 21 22 45 10 44 -42
-1 -67 5 -85 22 -28 23 -28 29 1 24 12 -2 33 3 47 10 21 11 29 11 54 -4 16
-10 35 -15 43 -12z m-1076 7 c35 7 47 -10 23 -32 -29 -26 -125 -16 -158 17
l-20 21 37 -2 c20 -1 40 2 43 5 4 3 16 2 27 -4 10 -6 32 -8 48 -5z m1269 -1
c25 7 37 -11 19 -28 -28 -27 -125 -17 -154 14 -14 17 -13 18 16 19 17 0 33 3
36 6 3 2 18 0 34 -6 16 -6 38 -8 49 -5z m-2317 0 c38 -7 34 -30 -9 -42 -52
-14 -147 25 -101 42 16 7 75 7 110 0z m257 -5 c0 -26 -80 -48 -130 -36 -22 6
-60 31 -60 41 0 4 43 6 95 5 52 -2 95 -6 95 -10z m197 -2 c14 -14 -26 -37 -63
-37 -74 0 -139 34 -82 43 35 5 138 1 145 -6z m89 4 c8 -8 19 -8 38 0 34 13 87
-9 64 -27 -42 -33 -165 -8 -142 29 7 11 28 10 40 -2z m741 -3 c13 -14 -8 -37
-34 -38 -17 -1 -21 -3 -10 -6 18 -5 24 -33 6 -33 -6 0 -18 9 -27 20 -10 11
-27 21 -40 23 -28 4 -46 22 -37 37 7 11 130 8 142 -3z m156 6 c76 -5 78 -6 59
-23 -34 -32 -110 -30 -148 3 -32 28 -29 29 89 20z m273 -5 c11 -12 -16 -38
-40 -39 -11 0 -15 -3 -8 -6 16 -6 15 -33 -2 -33 -7 0 -16 9 -19 20 -4 14 -14
20 -35 20 -17 0 -38 8 -48 17 -16 17 -16 18 7 23 34 8 136 6 145 -2z m128 2
c36 13 68 2 64 -24 -3 -19 -9 -21 -53 -18 -27 1 -52 7 -53 12 -2 6 -8 7 -14 4
-11 -7 -29 16 -22 28 3 4 16 3 29 -2 15 -6 34 -6 49 0z m649 -9 c30 -30 -43
-42 -82 -14 -23 16 -23 17 -5 24 22 9 74 3 87 -10z m-2837 -26 c-4 -10 1 -15
14 -15 11 0 20 -7 20 -15 0 -8 -9 -15 -20 -15 -11 0 -20 -7 -20 -15 0 -8 -4
-15 -10 -15 -5 0 -10 7 -10 15 0 8 -9 15 -20 15 -11 0 -20 7 -20 15 0 8 9 15
20 15 11 0 20 7 20 15 0 8 7 15 16 15 10 0 14 -6 10 -15z m210 0 c-4 -10 1
-15 14 -15 11 0 20 -7 20 -15 0 -9 -9 -15 -21 -15 -15 0 -19 -5 -15 -15 3 -9
0 -15 -9 -15 -8 0 -15 7 -15 15 0 8 -9 15 -20 15 -11 0 -20 7 -20 15 0 8 9 15
20 15 11 0 20 7 20 15 0 8 7 15 16 15 10 0 14 -6 10 -15z m210 0 c-4 -10 1
-15 14 -15 11 0 20 -7 20 -15 0 -8 -9 -15 -20 -15 -11 0 -20 -7 -20 -15 0 -8
-4 -15 -10 -15 -5 0 -10 7 -10 15 0 8 -9 15 -20 15 -11 0 -20 7 -20 15 0 8 9
15 20 15 11 0 20 7 20 15 0 8 7 15 16 15 10 0 14 -6 10 -15z m214 0 c0 -8 7
-15 15 -15 8 0 15 -7 15 -15 0 -8 -7 -15 -15 -15 -8 0 -15 -7 -15 -15 0 -8 -7
-15 -15 -15 -8 0 -15 7 -15 15 0 8 -9 15 -20 15 -11 0 -20 7 -20 15 0 8 9 15
20 15 11 0 20 7 20 15 0 8 7 15 15 15 8 0 15 -7 15 -15z m206 0 c-4 -10 1 -15
14 -15 11 0 20 -7 20 -15 0 -8 -9 -15 -20 -15 -12 0 -17 -5 -14 -14 3 -8 0
-17 -6 -21 -7 -4 -14 2 -17 14 -3 12 -13 21 -24 21 -11 0 -19 7 -19 15 0 8 9
15 20 15 11 0 20 7 20 15 0 8 7 15 16 15 10 0 14 -6 10 -15z m214 0 c0 -8 7
-15 15 -15 8 0 15 -7 15 -15 0 -8 -7 -15 -15 -15 -8 0 -15 -7 -15 -15 0 -8 -7
-15 -15 -15 -8 0 -15 7 -15 15 0 8 -9 15 -20 15 -11 0 -20 5 -20 11 0 6 9 13
20 16 11 3 20 12 20 19 0 8 7 14 15 14 8 0 15 -7 15 -15z m206 0 c-4 -10 1
-15 14 -15 11 0 20 -7 20 -15 0 -9 -9 -15 -21 -15 -14 0 -19 -5 -16 -15 4 -8
2 -17 -4 -21 -6 -3 -13 3 -16 15 -3 12 -13 21 -24 21 -11 0 -19 7 -19 15 0 8
9 15 20 15 11 0 20 7 20 15 0 8 7 15 16 15 10 0 14 -6 10 -15z m214 0 c0 -8 7
-15 15 -15 8 0 15 -7 15 -15 0 -8 -7 -15 -15 -15 -8 0 -15 -7 -15 -15 0 -8 -7
-15 -15 -15 -8 0 -15 7 -15 15 0 8 -9 15 -20 15 -11 0 -20 7 -20 15 0 8 9 15
20 15 11 0 20 7 20 15 0 8 7 15 15 15 8 0 15 -7 15 -15z m210 0 c0 -8 7 -15
15 -15 8 0 15 -7 15 -15 0 -9 -9 -15 -21 -15 -15 0 -19 -5 -15 -15 3 -9 0 -15
-9 -15 -8 0 -15 7 -15 15 0 8 -9 15 -20 15 -11 0 -20 7 -20 15 0 8 9 15 20 15
11 0 20 7 20 15 0 8 7 15 15 15 8 0 15 -7 15 -15z m210 0 c0 -8 7 -15 15 -15
8 0 15 -7 15 -15 0 -8 -7 -15 -15 -15 -8 0 -15 -7 -15 -15 0 -8 -7 -15 -15
-15 -8 0 -15 7 -15 15 0 8 -9 15 -20 15 -11 0 -20 7 -20 15 0 8 9 15 20 15 11
0 20 7 20 15 0 8 7 15 15 15 8 0 15 -7 15 -15z m210 0 c0 -8 7 -15 15 -15 8 0
15 -7 15 -15 0 -8 -7 -15 -15 -15 -8 0 -15 -7 -15 -15 0 -8 -7 -15 -15 -15 -8
0 -15 7 -15 15 0 8 -9 15 -20 15 -11 0 -20 7 -20 15 0 8 9 15 20 15 11 0 20 7
20 15 0 8 7 15 15 15 8 0 15 -7 15 -15z m210 0 c0 -8 7 -15 15 -15 8 0 15 -7
15 -15 0 -8 -6 -15 -14 -15 -7 0 -16 -9 -19 -21 -6 -23 -27 -17 -27 7 0 8 -9
14 -20 14 -11 0 -20 5 -20 11 0 6 9 13 20 16 11 3 20 12 20 19 0 8 7 14 15 14
8 0 15 -7 15 -15z m206 0 c-4 -10 1 -15 14 -15 11 0 20 -7 20 -15 0 -9 -9 -15
-21 -15 -15 0 -19 -5 -15 -15 3 -9 0 -15 -9 -15 -8 0 -15 7 -15 15 0 8 -9 15
-20 15 -11 0 -20 7 -20 15 0 8 9 15 20 15 11 0 20 7 20 15 0 8 7 15 16 15 10
0 14 -6 10 -15z m214 0 c0 -8 7 -15 15 -15 8 0 15 -7 15 -15 0 -8 -7 -15 -15
-15 -8 0 -15 -7 -15 -15 0 -8 -7 -15 -15 -15 -8 0 -15 7 -15 15 0 8 -9 15 -20
15 -11 0 -20 5 -20 11 0 6 9 13 20 16 11 3 20 12 20 19 0 8 7 14 15 14 8 0 15
-7 15 -15z m-2390 -30 c0 -8 -7 -15 -15 -15 -8 0 -15 -4 -15 -10 0 -5 -4 -10
-9 -10 -5 0 -4 11 2 25 13 27 37 34 37 10z m210 0 c0 -8 -8 -15 -17 -15 -15 0
-16 -2 -3 -10 13 -8 12 -10 -4 -10 -12 0 -16 5 -12 16 3 9 6 20 6 25 0 5 7 9
15 9 8 0 15 -7 15 -15z m630 0 c0 -8 -7 -15 -15 -15 -8 0 -15 -4 -15 -10 0 -5
-4 -10 -9 -10 -5 0 -4 11 2 25 13 27 37 34 37 10z m630 0 c0 -8 -7 -15 -16
-15 -8 0 -12 -4 -9 -10 3 -5 0 -10 -8 -10 -13 0 -13 4 -4 25 13 27 37 34 37
10z m420 0 c0 -8 -6 -15 -14 -15 -8 0 -16 -6 -19 -12 -2 -8 -8 -9 -13 -4 -5 5
-4 11 4 13 6 3 12 11 12 19 0 8 7 14 15 14 8 0 15 -7 15 -15z"/>
<path d="M1 1353 c1 -16 18 -47 18 -36 1 7 10 17 21 23 28 15 60 -4 60 -35 0
-22 -2 -24 -19 -14 -14 10 -23 9 -42 -4 -24 -17 -15 -24 10 -8 20 13 51 -9 51
-36 0 -24 -14 -31 -25 -13 -4 7 -12 7 -25 0 -27 -14 -30 -13 -30 13 0 18 -2
19 -10 7 -27 -41 -77 -40 1485 -40 958 0 1495 3 1495 10 0 5 -7 7 -15 4 -11
-5 -15 1 -15 20 0 16 6 26 14 26 10 0 14 13 13 45 l-1 45 -1493 0 c-821 0
-1493 -3 -1492 -7z m190 -13 c11 -6 19 -21 19 -35 0 -22 -2 -24 -25 -13 -18 8
-28 8 -38 0 -8 -7 -17 -9 -20 -5 -14 14 -6 40 16 51 28 14 25 14 48 2z m100 0
c11 -6 19 -21 19 -36 0 -22 -2 -23 -20 -14 -14 8 -26 8 -40 0 -18 -9 -20 -8
-20 14 0 14 8 30 18 35 21 13 20 13 43 1z m112 -4 c9 -7 17 -23 17 -35 0 -24
-3 -25 -30 -9 -15 10 -22 10 -32 0 -20 -20 -37 -14 -30 11 6 23 30 46 47 46 6
0 18 -6 28 -13z m98 4 c11 -6 19 -21 19 -36 0 -22 -2 -23 -20 -14 -14 8 -26 8
-40 0 -18 -9 -20 -8 -20 14 0 14 8 30 18 35 21 13 20 13 43 1z m112 -4 c9 -7
17 -23 17 -35 0 -24 -3 -25 -30 -9 -15 10 -22 10 -32 0 -18 -18 -28 -15 -28 9
0 21 25 48 45 48 6 0 18 -6 28 -13z m98 4 c11 -6 19 -21 19 -36 0 -22 -2 -23
-20 -14 -14 8 -26 8 -40 0 -18 -9 -20 -8 -20 14 0 14 8 30 18 35 21 13 20 13
43 1z m112 -4 c9 -7 17 -23 17 -35 0 -24 -3 -25 -30 -9 -15 10 -22 10 -32 0
-18 -18 -28 -15 -28 9 0 21 25 48 45 48 6 0 18 -6 28 -13z m98 4 c11 -6 19
-21 19 -35 0 -22 -2 -24 -25 -13 -19 8 -28 8 -40 -2 -13 -11 -15 -9 -15 13 0
14 8 31 18 36 21 13 20 13 43 1z m100 0 c11 -6 19 -21 19 -37 0 -22 -2 -24
-15 -13 -12 10 -21 10 -40 2 -23 -11 -25 -9 -25 13 0 13 8 29 18 34 21 13 20
13 43 1z m110 0 c11 -6 19 -21 19 -35 0 -22 -2 -24 -25 -13 -18 8 -28 8 -38 0
-8 -7 -17 -9 -20 -5 -14 14 -6 40 16 51 28 14 25 14 48 2z m100 0 c11 -6 19
-21 19 -36 0 -22 -2 -23 -20 -14 -14 8 -26 8 -40 0 -18 -9 -20 -8 -20 14 0 14
8 30 18 35 21 13 20 13 43 1z m117 -6 c12 -8 22 -24 22 -35 0 -22 -10 -25 -28
-7 -8 8 -18 9 -36 0 -21 -9 -25 -8 -29 9 -3 12 2 24 16 34 27 19 28 19 55 -1z
m103 6 c11 -6 19 -21 19 -36 0 -22 -2 -23 -20 -14 -14 7 -26 8 -39 1 -30 -16
-38 19 -11 41 26 21 26 21 51 8z m100 0 c11 -6 19 -21 19 -37 0 -22 -2 -24
-15 -13 -12 10 -21 10 -40 2 -23 -11 -25 -9 -25 13 0 13 8 29 18 34 21 13 20
13 43 1z m110 0 c11 -6 19 -21 19 -35 0 -23 -2 -24 -25 -13 -20 9 -28 9 -38
-1 -9 -10 -9 -12 3 -10 31 6 60 -12 60 -37 0 -27 -3 -28 -30 -14 -13 7 -21 7
-25 0 -3 -5 -10 -10 -14 -10 -12 0 -21 39 -10 46 5 3 4 14 -2 26 -10 18 -8 25
11 40 26 21 26 21 51 8z m100 0 c11 -6 19 -21 19 -36 0 -22 -2 -23 -20 -14
-14 8 -26 8 -40 0 -18 -9 -20 -8 -20 14 0 14 8 30 18 35 21 13 20 13 43 1z
m110 0 c11 -6 19 -21 19 -35 0 -29 -3 -30 -30 -13 -15 10 -22 10 -32 0 -18
-18 -28 -15 -28 9 0 20 25 48 43 49 5 0 17 -5 28 -10z m100 0 c11 -6 19 -21
19 -36 0 -22 -2 -23 -20 -14 -14 8 -26 8 -40 0 -18 -9 -20 -8 -20 14 0 14 8
30 18 35 21 13 20 13 43 1z m112 -4 c9 -7 17 -23 17 -35 0 -24 -3 -25 -30 -9
-15 10 -22 10 -32 0 -18 -18 -28 -15 -28 9 0 21 25 48 45 48 6 0 18 -6 28 -13z
m98 4 c11 -6 19 -21 19 -36 0 -22 -2 -23 -20 -14 -14 8 -26 8 -40 0 -18 -9
-20 -8 -20 14 0 14 8 30 18 35 21 13 20 13 43 1z m110 -8 c29 -25 21 -59 -11
-40 -15 10 -22 10 -32 0 -19 -19 -28 -14 -28 13 0 21 21 44 41 45 4 0 17 -8
30 -18z m100 8 c11 -6 19 -21 19 -35 0 -22 -2 -24 -25 -13 -18 8 -28 8 -39 -1
-11 -9 -15 -8 -20 6 -5 12 0 24 14 35 26 21 26 21 51 8z m109 -8 c27 -22 19
-57 -11 -41 -13 7 -25 6 -39 -1 -18 -9 -20 -8 -20 14 0 14 8 30 18 35 23 14
27 14 52 -7z m105 6 c16 -7 25 -19 25 -35 0 -26 -3 -28 -30 -11 -15 10 -22 10
-32 0 -19 -19 -28 -14 -28 13 0 13 8 29 18 34 21 13 17 13 47 -1z m106 2 c11
-6 19 -21 19 -36 0 -22 -2 -23 -20 -14 -14 8 -26 8 -40 0 -18 -9 -20 -8 -20
14 0 14 8 30 18 35 21 13 20 13 43 1z m99 0 c15 -8 19 -22 19 -65 0 -56 -6
-64 -27 -43 -9 9 -15 9 -24 0 -19 -19 -28 -14 -28 12 0 25 29 43 60 37 12 -2
12 0 3 10 -10 10 -18 10 -38 1 -23 -11 -25 -10 -25 13 0 13 8 29 18 34 21 13
20 13 42 1z m111 0 c11 -6 19 -21 19 -35 0 -23 -2 -24 -25 -13 -20 9 -28 9
-38 -1 -9 -10 -9 -12 3 -10 31 6 60 -12 60 -37 0 -27 -3 -28 -30 -14 -13 7
-21 7 -25 0 -15 -24 -24 -6 -24 45 0 41 5 57 17 65 21 12 20 12 43 0z m-2711
-97 c0 -25 -7 -28 -29 -14 -9 6 -22 6 -32 1 -26 -15 -33 26 -7 44 28 20 68 2
68 -31z m100 0 c0 -24 -14 -31 -25 -13 -4 7 -12 7 -25 0 -27 -14 -30 -13 -30
13 0 30 37 49 63 33 9 -6 17 -21 17 -33z m108 -2 c4 -23 -4 -26 -27 -12 -9 6
-22 6 -32 1 -27 -15 -33 26 -6 45 18 12 24 13 42 1 11 -7 21 -23 23 -35z m208
0 c1 -17 -3 -20 -15 -15 -20 8 -32 8 -53 -1 -27 -11 -23 30 4 49 19 13 25 14
43 2 11 -7 21 -23 21 -35z m104 2 c0 -25 -10 -29 -28 -11 -9 9 -15 9 -24 0
-18 -18 -28 -15 -28 9 0 12 8 27 17 34 25 18 63 -1 63 -32z m104 18 c4 -5 3
-16 0 -25 -4 -11 -11 -13 -23 -7 -10 6 -23 6 -32 0 -22 -14 -29 -11 -29 14 0
41 62 54 84 18z m106 -18 c0 -25 -10 -29 -28 -11 -9 9 -15 9 -24 0 -18 -18
-28 -15 -28 9 0 12 8 27 17 34 25 18 63 -1 63 -32z m100 -1 c0 -19 -3 -21 -18
-13 -11 6 -24 6 -33 0 -22 -14 -29 -11 -29 14 0 30 37 49 63 33 9 -6 17 -21
17 -34z m110 1 c0 -26 -3 -27 -30 -13 -13 7 -21 7 -25 0 -10 -16 -22 -12 -28
9 -3 13 3 25 17 34 29 19 66 3 66 -30z m100 0 c0 -25 -10 -29 -28 -11 -9 9
-15 9 -24 0 -18 -18 -28 -14 -28 11 0 30 37 49 63 33 9 -6 17 -21 17 -33z
m112 1 c-5 -26 -9 -29 -25 -16 -8 7 -18 7 -27 2 -23 -14 -28 -12 -32 13 -4 30
38 51 67 32 11 -7 18 -21 17 -31z m108 -1 c0 -26 -3 -27 -30 -13 -13 7 -21 7
-25 0 -11 -17 -25 -11 -25 11 0 12 8 27 17 34 25 18 63 -1 63 -32z m100 0 c0
-24 -14 -31 -25 -13 -4 7 -12 7 -25 0 -27 -14 -30 -13 -30 13 0 30 37 49 63
33 9 -6 17 -21 17 -33z m210 0 c0 -25 -10 -29 -28 -11 -9 9 -15 9 -24 0 -18
-18 -28 -14 -28 11 0 30 37 49 63 33 9 -6 17 -21 17 -33z m108 -3 c3 -19 0
-21 -15 -15 -23 9 -33 9 -55 0 -27 -11 -23 30 4 49 19 13 25 14 43 2 11 -7 22
-24 23 -36z m210 0 c3 -19 0 -21 -15 -15 -23 9 -33 9 -55 0 -14 -6 -18 -2 -18
17 0 54 80 52 88 -2z m104 3 c-5 -26 -12 -29 -30 -11 -9 9 -15 9 -24 0 -18
-18 -28 -15 -28 9 0 32 27 48 60 36 21 -8 26 -15 22 -34z m98 1 c0 -21 -3 -23
-18 -15 -11 6 -24 6 -33 0 -22 -14 -29 -11 -29 14 0 29 36 49 63 35 9 -5 17
-20 17 -34z m110 -1 c0 -26 -3 -27 -30 -13 -13 7 -21 7 -25 0 -11 -17 -25 -11
-25 11 0 12 8 27 17 34 25 18 63 -1 63 -32z m115 24 c6 7 -2 -11 -22 -46 -2
-2 -10 2 -18 9 -12 10 -19 10 -27 2 -18 -18 -28 -14 -28 11 0 32 37 49 66 31
11 -8 24 -11 29 -7z m105 -12 c0 -21 -14 -33 -29 -26 -10 6 -23 6 -32 0 -22
-14 -29 -11 -29 14 0 33 37 49 68 29 12 -8 22 -16 22 -17z m100 -12 c0 -26 -3
-27 -30 -13 -13 7 -21 7 -25 0 -11 -17 -25 -11 -25 11 0 12 8 27 17 34 25 18
63 -1 63 -32z m-2226 31 c9 -3 16 -17 16 -30 0 -26 -10 -30 -28 -12 -9 9 -15
9 -24 0 -18 -18 -28 -14 -28 12 0 31 28 44 64 30z m1470 0 c9 -3 16 -16 16
-28 0 -18 -6 -21 -40 -21 -34 0 -40 3 -40 21 0 29 29 41 64 28z"/>
<path d="M253 1263 c-23 -9 -13 -20 17 -19 33 1 39 10 14 20 -9 3 -16 6 -17 5
-1 0 -8 -3 -14 -6z"/>
<path d="M463 1263 c-23 -9 -13 -20 17 -19 33 1 39 10 14 20 -9 3 -16 6 -17 5
-1 0 -8 -3 -14 -6z"/>
<path d="M1933 1263 c-22 -8 -14 -18 17 -19 32 -1 40 10 14 20 -9 3 -16 6 -17
5 -1 0 -8 -3 -14 -6z"/>
<path d="M0 1146 c0 -19 3 -41 6 -50 6 -15 146 -16 1490 -16 983 0 1484 -3
1484 -10 0 -11 5 -11 -1082 -10 -496 0 -627 -2 -631 -12 -4 -10 -6 -10 -6 0
-1 9 -132 12 -623 10 -343 -1 -604 -3 -580 -5 47 -5 49 -8 25 -43 -12 -17 -13
-25 -5 -28 7 -2 12 -8 12 -13 0 -6 -4 -7 -10 -4 -15 9 -12 -8 5 -31 22 -29 18
-34 -20 -34 -39 0 -42 7 -20 36 16 22 20 38 6 29 -5 -3 -12 -1 -16 5 -3 5 1
10 10 10 15 0 14 3 -2 30 -19 32 -40 42 -24 11 11 -20 3 -91 -10 -91 -5 0 -9
-11 -9 -25 l0 -25 1495 0 1496 0 -2 150 -2 150 -1494 0 -1493 0 0 -34z m120
-1 c-10 -12 -10 -19 -2 -27 20 -20 14 -26 -23 -26 -40 0 -59 18 -50 48 5 16
15 20 47 20 35 0 39 -2 28 -15z m140 0 c-10 -12 -10 -19 -2 -27 20 -20 14 -26
-23 -26 -40 0 -59 18 -50 48 5 16 15 20 47 20 35 0 39 -2 28 -15z m140 0 c-10
-12 -10 -19 -2 -27 20 -20 14 -26 -23 -26 -40 0 -59 18 -50 48 5 16 15 20 47
20 35 0 39 -2 28 -15z m140 0 c-10 -12 -10 -19 -2 -27 20 -20 14 -26 -23 -26
-40 0 -59 18 -50 48 5 16 15 20 47 20 35 0 39 -2 28 -15z m140 0 c-10 -12 -10
-19 -2 -27 20 -20 14 -26 -23 -26 -40 0 -59 18 -50 48 5 16 15 20 47 20 35 0
39 -2 28 -15z m140 0 c-10 -12 -10 -19 -2 -27 20 -20 14 -26 -23 -26 -40 0
-59 18 -50 48 5 16 15 20 47 20 35 0 39 -2 28 -15z m140 0 c-10 -12 -10 -19
-2 -27 20 -20 13 -27 -24 -25 -72 4 -74 67 -3 67 36 0 40 -2 29 -15z m140 0
c-10 -12 -10 -19 -2 -27 20 -20 13 -27 -24 -25 -72 4 -74 67 -3 67 36 0 40 -2
29 -15z m140 0 c-10 -12 -10 -19 -2 -27 20 -20 13 -27 -24 -25 -72 4 -74 67
-3 67 36 0 40 -2 29 -15z m140 0 c-10 -12 -10 -19 -2 -27 20 -20 14 -26 -23
-26 -40 0 -59 18 -50 48 5 16 15 20 47 20 35 0 39 -2 28 -15z m140 0 c-10 -12
-10 -19 -2 -27 20 -20 14 -26 -23 -26 -40 0 -59 18 -50 48 5 16 15 20 47 20
35 0 39 -2 28 -15z m140 0 c-10 -12 -10 -19 -2 -27 20 -20 14 -26 -23 -26 -40
0 -59 18 -50 48 5 16 15 20 47 20 35 0 39 -2 28 -15z m140 0 c-10 -12 -10 -19
-2 -27 20 -20 14 -26 -23 -26 -40 0 -59 18 -50 48 5 16 15 20 47 20 35 0 39
-2 28 -15z m140 0 c-10 -12 -10 -19 -2 -27 20 -20 14 -26 -23 -26 -40 0 -59
18 -50 48 5 16 15 20 47 20 35 0 39 -2 28 -15z m140 0 c-10 -12 -10 -19 -2
-27 20 -20 14 -26 -23 -26 -40 0 -59 18 -50 48 5 16 15 20 47 20 35 0 39 -2
28 -15z m140 0 c-10 -12 -10 -19 -2 -27 20 -20 14 -26 -23 -26 -40 0 -59 18
-50 48 5 16 15 20 47 20 35 0 39 -2 28 -15z m140 0 c-10 -12 -10 -19 -2 -27
20 -20 14 -26 -23 -26 -40 0 -59 18 -50 48 5 16 15 20 47 20 35 0 39 -2 28
-15z m140 0 c-10 -12 -10 -19 -2 -27 20 -20 14 -26 -23 -26 -40 0 -59 18 -50
48 5 16 15 20 47 20 35 0 39 -2 28 -15z m140 0 c-10 -12 -10 -19 -2 -27 20
-20 14 -26 -23 -26 -40 0 -59 18 -50 48 5 16 15 20 47 20 35 0 39 -2 28 -15z
m140 0 c-10 -12 -10 -19 -2 -27 20 -20 14 -26 -23 -26 -40 0 -59 18 -50 48 5
16 15 20 47 20 35 0 39 -2 28 -15z m140 0 c-10 -12 -10 -19 -2 -27 20 -20 14
-26 -23 -26 -40 0 -59 18 -50 48 5 16 15 20 47 20 35 0 39 -2 28 -15z m-2730
-100 c0 -3 -8 -18 -17 -32 -14 -21 -15 -27 -4 -31 10 -3 10 -6 1 -12 -9 -6 -8
-15 4 -39 l17 -31 -36 0 c-40 0 -40 1 -20 40 14 28 14 30 -2 31 -17 1 -17 2 0
6 17 4 16 7 -3 39 l-22 34 41 0 c23 0 41 -2 41 -5z m90 0 c0 -3 -8 -18 -17
-32 -14 -21 -15 -27 -4 -31 11 -4 11 -6 0 -13 -11 -7 -11 -14 4 -39 l18 -30
-40 0 -40 0 17 31 c14 26 14 32 3 36 -10 4 -10 7 -1 13 9 6 8 15 -4 39 l-17
31 41 0 c22 0 40 -2 40 -5z m70 -30 c-19 -31 -20 -35 -5 -35 14 0 15 -3 5 -15
-10 -12 -9 -20 4 -40 l16 -25 -40 0 -41 0 17 32 c13 24 14 33 4 36 -10 4 -10
6 1 12 10 7 9 14 -4 34 -23 35 -22 36 24 36 l41 0 -22 -35z m100 30 c0 -4 -7
-19 -15 -35 -12 -23 -13 -30 -3 -31 10 0 10 -2 1 -6 -10 -3 -9 -11 2 -33 20
-39 20 -40 -20 -40 -40 0 -41 2 -18 37 14 21 15 27 4 31 -11 4 -11 6 0 12 10
7 9 14 -4 34 -23 34 -22 36 18 36 19 0 35 -2 35 -5z m90 -3 c0 -4 -8 -18 -17
-32 -13 -18 -14 -25 -4 -28 11 -4 11 -6 0 -12 -10 -7 -9 -14 4 -34 23 -34 22
-36 -18 -36 -38 0 -42 5 -20 34 17 23 20 40 5 31 -5 -3 -10 -1 -10 4 0 6 5 11
10 11 6 0 4 13 -5 30 -20 39 -20 40 20 40 19 0 35 -3 35 -8z m90 3 c0 -3 -8
-18 -17 -32 -13 -19 -14 -28 -5 -31 6 -2 12 -8 12 -13 0 -6 -4 -7 -10 -4 -14
9 -12 -1 5 -35 l16 -30 -36 0 c-40 0 -40 1 -19 42 9 16 11 27 6 24 -6 -4 -13
-2 -17 4 -3 5 1 10 11 10 15 0 15 2 0 25 -24 36 -20 45 19 45 19 0 35 -2 35
-5z m90 0 c0 -3 -8 -18 -17 -32 -14 -21 -15 -27 -4 -31 10 -3 10 -6 1 -12 -9
-6 -8 -15 4 -39 l17 -31 -41 0 -40 0 20 32 c18 31 19 33 2 40 -16 6 -16 7 1 7
17 1 17 3 -3 36 l-22 35 41 0 c23 0 41 -2 41 -5z m71 -30 c-18 -32 -19 -35 -3
-36 16 0 16 -1 0 -7 -17 -7 -16 -9 2 -40 l20 -32 -41 0 -40 0 18 31 c15 26 15
33 4 37 -10 3 -10 6 -1 12 9 6 8 15 -4 39 l-17 31 42 0 41 0 -21 -35z m99 23
c0 -7 -7 -22 -16 -33 -13 -18 -13 -20 3 -27 17 -6 17 -7 0 -7 -16 -1 -16 -3
-2 -31 20 -39 20 -40 -20 -40 l-36 0 17 32 c13 24 14 33 4 36 -10 4 -10 6 1
12 10 7 9 14 -4 34 -23 34 -22 36 18 36 22 0 35 -5 35 -12z m90 7 c0 -4 -7
-19 -15 -35 -9 -17 -11 -30 -5 -30 5 0 10 -5 10 -11 0 -5 -4 -7 -10 -4 -15 9
-12 -7 5 -29 22 -29 19 -36 -20 -36 -38 0 -42 5 -20 34 17 23 20 40 5 31 -5
-3 -10 -2 -10 4 0 5 5 11 12 13 8 3 7 11 -5 28 -24 35 -22 40 18 40 19 0 35
-2 35 -5z m90 -3 c0 -4 -8 -18 -17 -32 -12 -17 -13 -25 -5 -28 7 -2 12 -8 12
-13 0 -6 -4 -7 -10 -4 -15 9 -12 -8 5 -31 22 -29 18 -34 -20 -34 -39 0 -42 7
-20 36 17 22 20 38 5 29 -5 -3 -10 -1 -10 4 0 6 5 11 10 11 6 0 4 13 -5 30
-20 39 -20 40 20 40 19 0 35 -3 35 -8z m90 3 c0 -3 -8 -18 -17 -32 -13 -19
-14 -28 -5 -31 6 -2 12 -8 12 -13 0 -6 -4 -7 -10 -4 -14 9 -12 -1 5 -35 l16
-30 -40 0 -40 0 20 35 c20 33 20 35 2 36 -17 0 -17 1 0 7 16 7 16 9 3 27 -25
32 -19 45 19 45 19 0 35 -2 35 -5z m90 0 c0 -3 -8 -18 -17 -32 -14 -21 -15
-27 -4 -31 11 -4 11 -6 0 -13 -11 -7 -11 -14 4 -39 l18 -30 -41 0 -41 0 18 30
c16 27 16 32 3 40 -13 8 -12 10 2 10 16 0 15 3 -3 35 l-21 35 41 0 c23 0 41
-2 41 -5z m110 -3 c0 -4 -8 -18 -17 -32 -12 -17 -13 -25 -5 -28 7 -2 12 -8 12
-13 0 -6 -4 -7 -10 -4 -15 9 -12 -8 5 -31 22 -29 18 -34 -20 -34 -39 0 -42 7
-20 36 17 22 20 38 5 29 -5 -3 -10 -2 -10 4 0 5 5 11 12 13 8 3 7 11 -5 28
-24 35 -22 40 18 40 19 0 35 -3 35 -8z m90 3 c0 -3 -8 -18 -17 -32 -13 -19
-14 -28 -5 -31 6 -2 12 -8 12 -13 0 -6 -4 -7 -10 -4 -15 9 -12 -8 5 -31 22
-29 18 -34 -20 -34 -40 0 -40 1 -19 42 9 16 11 27 6 24 -6 -4 -13 -2 -17 4 -3
5 1 10 11 10 15 0 15 2 0 25 -24 36 -20 45 19 45 19 0 35 -2 35 -5z m90 0 c0
-3 -8 -18 -17 -32 -14 -21 -15 -27 -4 -31 11 -4 11 -6 0 -13 -11 -7 -11 -14 4
-39 l18 -30 -40 0 -41 0 20 32 c18 31 19 33 2 40 -16 6 -16 7 1 7 17 1 17 3
-3 36 l-22 35 41 0 c23 0 41 -2 41 -5z m70 -30 c-19 -30 -19 -35 -5 -35 9 0
13 -5 10 -10 -4 -6 -12 -7 -18 -3 -6 4 -1 -10 11 -30 l21 -37 -40 0 -40 0 18
31 c15 26 15 33 4 37 -11 3 -11 6 0 12 10 7 9 14 -4 34 -23 35 -22 36 24 36
l41 0 -22 -35z m100 23 c0 -7 -7 -22 -16 -33 -13 -18 -13 -20 3 -27 17 -6 17
-7 0 -7 -16 -1 -16 -3 -2 -31 20 -39 20 -40 -20 -40 l-36 0 17 32 c13 24 14
33 4 36 -10 4 -10 6 1 12 10 7 9 14 -4 34 -23 34 -22 36 18 36 22 0 35 -5 35
-12z m90 7 c0 -4 -7 -19 -15 -35 -9 -17 -11 -30 -5 -30 5 0 10 -5 10 -11 0 -5
-4 -7 -10 -4 -15 9 -12 -8 5 -31 22 -29 18 -34 -20 -34 -38 0 -42 5 -20 34 17
23 20 40 5 31 -5 -3 -10 -2 -10 4 0 5 5 11 12 13 8 3 7 11 -5 28 -24 35 -22
40 18 40 19 0 35 -2 35 -5z m90 -3 c0 -4 -8 -18 -17 -32 -13 -18 -14 -25 -4
-28 11 -4 11 -6 0 -12 -10 -7 -9 -14 4 -34 23 -34 22 -36 -18 -36 -39 0 -42 7
-20 36 17 22 20 38 5 29 -5 -3 -10 -1 -10 4 0 6 5 11 11 11 7 0 5 10 -5 25
-24 36 -20 45 19 45 19 0 35 -3 35 -8z m90 3 c0 -3 -8 -18 -17 -32 -14 -21
-15 -27 -4 -31 10 -3 10 -6 1 -12 -9 -6 -8 -15 4 -39 l17 -31 -40 0 -40 0 21
37 c12 20 17 34 11 30 -6 -4 -14 -3 -18 3 -3 5 1 10 11 10 15 0 15 2 0 25 -24
36 -20 45 19 45 19 0 35 -2 35 -5z m74 -27 c-13 -24 -14 -33 -4 -36 9 -3 9 -6
-1 -13 -11 -7 -11 -14 4 -39 l18 -30 -41 0 -41 0 18 31 c15 26 15 33 4 37 -10
3 -10 6 -1 12 9 6 8 15 -4 39 l-17 31 41 0 41 0 -17 -32z m96 20 c0 -7 -7 -22
-16 -33 -13 -18 -13 -20 3 -27 17 -6 17 -7 0 -7 -16 -1 -16 -3 -2 -31 20 -39
20 -40 -20 -40 l-36 0 17 32 c13 24 14 33 4 36 -10 4 -10 6 1 12 10 7 9 14 -4
34 -23 34 -22 36 18 36 22 0 35 -5 35 -12z m90 7 c0 -4 -7 -19 -15 -35 -9 -17
-11 -30 -5 -30 5 0 10 -5 10 -11 0 -5 -4 -7 -10 -4 -15 9 -12 -7 5 -29 22 -29
19 -36 -20 -36 -38 0 -42 5 -20 34 17 23 20 40 5 31 -5 -3 -10 -2 -10 4 0 5 5
11 12 13 8 3 7 11 -5 28 -24 35 -22 40 18 40 19 0 35 -2 35 -5z m90 -3 c0 -4
-8 -18 -17 -32 -12 -17 -13 -25 -5 -28 7 -2 12 -8 12 -13 0 -6 -4 -7 -10 -4
-15 9 -12 -8 5 -31 22 -29 18 -34 -20 -34 -39 0 -42 7 -20 36 17 22 20 38 5
29 -5 -3 -10 -1 -10 4 0 6 5 11 10 11 6 0 4 13 -5 30 -20 39 -20 40 20 40 19
0 35 -3 35 -8z m90 3 c0 -3 -8 -18 -17 -32 -13 -19 -14 -28 -5 -31 6 -2 12 -8
12 -13 0 -6 -4 -7 -10 -4 -14 9 -12 -1 5 -35 l16 -30 -36 0 c-40 0 -40 1 -20
40 12 23 13 30 3 30 -10 0 -10 2 -1 8 10 6 10 12 -2 28 -24 31 -18 44 20 44
19 0 35 -2 35 -5z m90 0 c0 -3 -8 -18 -17 -32 -14 -21 -15 -27 -4 -31 11 -4
11 -6 0 -13 -11 -7 -11 -14 4 -39 l18 -30 -40 0 -41 0 20 32 c18 31 19 33 2
40 -16 6 -16 7 0 7 16 1 15 4 -3 36 l-21 35 41 0 c23 0 41 -2 41 -5z m110 -3
c0 -4 -8 -18 -17 -32 -12 -17 -13 -25 -5 -28 7 -2 12 -8 12 -13 0 -6 -4 -7
-10 -4 -15 9 -12 -8 5 -31 22 -29 18 -34 -20 -34 -38 0 -42 5 -20 34 17 23 20
40 5 31 -5 -3 -10 -2 -10 4 0 5 5 11 12 13 8 3 7 11 -5 28 -24 35 -22 40 18
40 19 0 35 -3 35 -8z m90 3 c0 -3 -8 -18 -17 -32 -13 -19 -14 -28 -5 -31 6 -2
12 -8 12 -13 0 -6 -4 -7 -10 -4 -15 9 -12 -8 5 -31 22 -29 18 -34 -20 -34 -40
0 -40 1 -19 42 9 16 11 27 5 24 -6 -4 -11 -2 -11 3 0 6 5 11 10 11 6 0 4 13
-5 30 -20 39 -20 40 20 40 19 0 35 -2 35 -5z m90 0 c0 -3 -8 -18 -17 -32 -14
-21 -15 -27 -4 -31 10 -3 10 -6 1 -12 -9 -6 -8 -15 4 -39 l17 -31 -41 0 -40 0
20 32 c18 31 19 33 2 40 -16 6 -16 7 1 7 17 1 17 3 -3 36 l-22 35 41 0 c23 0
41 -2 41 -5z m71 -30 c-18 -32 -19 -35 -3 -35 15 0 15 -2 2 -10 -13 -8 -13
-13 2 -40 l17 -30 -40 0 -40 0 18 31 c15 26 15 33 4 37 -11 3 -11 6 0 12 10 7
9 14 -4 34 -23 35 -22 36 24 36 l41 0 -21 -35z m99 23 c0 -7 -7 -22 -15 -32
-12 -16 -12 -22 -2 -28 9 -6 9 -8 -1 -8 -10 0 -9 -7 3 -30 20 -39 20 -40 -20
-40 l-36 0 17 32 c13 24 14 33 4 36 -10 4 -10 6 1 12 10 7 9 14 -4 34 -23 34
-22 36 18 36 22 0 35 -5 35 -12z m-1689 -68 c-7 -34 -8 -34 -19 -13 -22 40
-11 87 14 61 9 -9 10 -24 5 -48z m1262 36 c8 -21 -4 -57 -17 -53 -6 2 -13 11
-14 21 -7 36 19 63 31 32z"/>
<path d="M742 853 c410 -2 1085 -2 1500 0 414 1 78 2 -747 2 -825 0 -1164 -1
-753 -2z"/>
<path d="M0 830 c0 -7 505 -10 1495 -10 990 0 1495 3 1495 10 0 7 -505 10
-1495 10 -990 0 -1495 -3 -1495 -10z"/>
<path d="M1480 802 l-1485 -2 33 -20 c25 -16 37 -18 52 -10 17 9 20 7 20 -13
0 -35 -24 -53 -54 -39 -20 9 -25 8 -30 -4 -9 -23 -7 -31 3 -15 6 10 13 11 29
2 14 -7 23 -8 27 -1 10 16 22 12 28 -10 7 -25 -32 -52 -56 -38 -11 6 -17 5
-17 -2 0 -5 -7 -10 -15 -10 -8 0 -15 -4 -15 -10 0 -7 505 -10 1495 -10 1488 0
1495 0 1495 20 0 11 -7 20 -15 20 -9 0 -15 10 -15 26 0 19 4 25 15 20 8 -3 15
-1 15 3 0 5 -7 11 -15 15 -8 3 -15 17 -15 31 0 15 4 24 10 20 5 -3 7 -12 4
-19 -3 -8 -1 -16 4 -20 5 -3 9 13 10 34 1 27 -2 39 -11 38 -6 -2 -680 -4
-1497 -6z m-1055 -29 c-2 -10 -4 -24 -4 -31 -1 -7 -12 -17 -26 -24 -30 -14
-55 3 -55 38 0 21 2 23 19 12 15 -9 24 -8 43 5 12 9 24 16 25 16 1 1 0 -7 -2
-16z m185 0 c27 16 27 16 22 -11 -5 -27 -28 -51 -47 -51 -20 0 -44 26 -49 53
l-5 28 26 -17 c24 -16 28 -16 53 -2z m245 -3 c3 0 3 5 0 10 -3 6 1 10 10 10 9
0 14 -4 11 -9 -9 -13 26 -23 38 -11 17 17 26 12 26 -15 0 -31 -32 -50 -60 -35
-11 6 -20 17 -20 25 0 8 -5 15 -11 15 -6 0 -8 -9 -4 -21 5 -15 4 -19 -4 -14
-7 4 -18 2 -25 -5 -8 -6 -26 -8 -40 -4 -20 5 -26 12 -26 35 0 31 9 36 27 18
14 -14 47 -3 37 12 -5 8 -1 8 14 0 11 -6 23 -11 27 -11z m136 6 c8 4 9 3 5 -4
-9 -15 -1 -15 25 -2 16 9 19 7 19 -13 0 -60 -73 -58 -82 2 -4 24 -2 28 8 20 7
-6 19 -7 25 -3z m129 -11 c6 4 8 10 6 14 -3 3 3 7 13 7 27 0 15 -55 -15 -68
-19 -9 -28 -8 -43 6 -11 10 -17 25 -14 34 4 9 2 13 -4 9 -5 -3 -10 0 -10 8 0
12 5 11 29 -1 16 -8 33 -12 38 -9z m178 10 c16 -12 26 -13 42 -5 11 6 20 9 21
8 7 -26 4 -40 -12 -54 -33 -30 -79 3 -70 50 1 5 -5 4 -13 -4 -9 -7 -16 -18
-16 -26 0 -7 -9 -18 -20 -24 -28 -15 -60 4 -60 36 0 22 2 23 20 14 15 -8 27
-7 47 4 35 19 34 19 61 1z m249 -8 c21 10 51 9 76 -2 10 -4 24 -2 32 5 18 15
28 8 30 -20 2 -27 -46 -46 -73 -29 -11 7 -18 19 -15 26 3 7 -2 13 -11 13 -9 0
-16 -6 -16 -14 0 -7 -7 -19 -15 -26 -24 -20 -62 2 -67 38 -4 29 -4 30 18 15
15 -9 29 -11 41 -6z m321 7 c28 15 28 15 24 -15 -9 -61 -85 -59 -94 2 -4 28
-4 29 19 14 20 -14 26 -14 51 -1z m206 -5 c8 7 19 10 25 7 15 -10 1 -42 -24
-56 -31 -17 -61 1 -67 39 l-4 30 27 -16 c23 -14 31 -14 43 -4z m176 11 c-20
-13 7 -22 30 -10 11 6 20 7 20 3 0 -4 5 -1 10 7 8 13 10 12 10 -2 0 -10 -5
-18 -11 -18 -5 0 -8 -4 -5 -9 3 -4 -3 -16 -14 -26 -27 -25 -66 -8 -72 32 -3
24 0 28 21 30 15 1 19 -2 11 -7z m272 -18 c-7 -2 -12 -10 -12 -17 0 -8 -9 -19
-20 -25 -28 -15 -60 4 -60 36 0 22 2 23 20 14 14 -7 26 -7 39 -1 10 6 21 7 25
4 3 -3 6 0 7 8 0 12 1 12 6 0 3 -8 1 -17 -5 -19z m85 10 l29 17 -4 -30 c-5
-35 -33 -53 -65 -43 -12 5 -28 7 -34 6 -7 -2 -13 2 -13 8 0 5 5 10 10 10 6 0
10 8 10 18 0 28 11 34 26 14 12 -16 14 -16 41 0z m208 2 c26 17 50 22 25 5
-12 -8 -12 -10 5 -8 11 1 28 -1 37 -5 9 -4 26 -3 37 4 19 9 21 8 21 -15 0 -37
-42 -55 -70 -30 -11 10 -17 22 -14 26 3 5 -2 9 -10 9 -9 0 -16 -6 -16 -14 0
-7 -7 -19 -15 -26 -24 -20 -62 2 -67 38 -4 29 -4 30 19 15 21 -14 26 -14 48 1z
m-2623 -3 c13 7 17 3 20 -21 3 -16 2 -28 0 -25 -3 2 -14 -1 -25 -6 -24 -14
-67 6 -67 31 0 24 9 30 34 20 12 -4 29 -4 38 1z m98 -1 c18 9 20 8 20 -14 0
-32 -32 -51 -60 -36 -12 6 -20 21 -20 36 0 22 2 23 20 14 14 -8 26 -8 40 0z
m210 0 c18 9 20 8 20 -14 0 -32 -32 -51 -60 -36 -12 6 -20 21 -20 36 0 22 2
23 20 14 14 -8 26 -8 40 0z m210 0 c18 9 20 8 20 -14 0 -50 -70 -56 -83 -7 -6
26 1 33 24 20 13 -6 25 -6 39 1z m737 1 c20 7 23 5 23 -16 0 -32 -31 -49 -63
-34 -20 9 -26 27 -18 57 1 2 9 -1 18 -7 10 -5 26 -5 40 0z m313 -1 c18 9 20 8
20 -14 0 -32 -32 -51 -60 -36 -12 6 -20 21 -20 36 0 22 2 23 20 14 14 -8 26
-8 40 0z m213 1 c14 8 17 6 17 -15 0 -32 -32 -51 -60 -36 -12 6 -20 21 -20 35
0 21 3 23 23 16 14 -5 30 -5 40 0z m207 -1 c18 9 20 8 20 -14 0 -32 -32 -51
-60 -36 -12 6 -20 21 -20 36 0 22 2 23 20 14 14 -8 26 -8 40 0z m210 0 c18 9
20 8 20 -15 0 -17 -8 -29 -25 -37 -31 -14 -55 3 -55 39 0 21 3 22 20 13 14 -8
26 -8 40 0z m320 0 c18 9 20 8 20 -14 0 -32 -32 -51 -60 -36 -12 6 -20 21 -20
36 0 22 2 23 20 14 14 -8 26 -8 40 0z m-2555 -70 c4 -7 12 -7 25 0 27 14 30
13 30 -13 0 -33 -37 -49 -67 -29 -26 16 -31 52 -9 52 8 0 18 -5 21 -10z m105
0 c13 -7 21 -7 25 0 11 17 23 11 27 -12 2 -15 -4 -27 -17 -34 -29 -15 -65 3
-65 33 0 26 3 27 30 13z m105 0 c4 -7 12 -7 25 0 27 14 32 13 28 -11 -2 -12
-12 -28 -23 -35 -18 -12 -24 -11 -43 2 -25 17 -30 54 -8 54 8 0 18 -5 21 -10z
m105 0 c13 -7 21 -7 25 0 11 18 25 11 25 -13 0 -31 -38 -50 -63 -32 -9 7 -17
22 -17 34 0 24 4 25 30 11z m106 -1 c4 -8 9 -8 17 0 6 6 17 11 25 11 20 0 11
-40 -13 -56 -18 -12 -24 -11 -43 2 -25 17 -30 54 -8 54 8 0 18 -5 22 -11z
m154 -16 c0 -24 -29 -38 -60 -28 -12 4 -20 15 -20 28 0 19 5 22 40 22 35 0 40
-3 40 -22z m49 18 c9 -6 21 -5 32 2 22 13 24 11 32 -28 4 -16 4 -24 1 -18 -4
10 -10 10 -26 -1 -28 -20 -68 -2 -68 31 0 25 7 28 29 14z m106 -1 c4 -7 12 -7
25 0 27 14 30 13 30 -13 0 -31 -38 -50 -63 -32 -9 7 -17 22 -17 34 0 22 14 28
25 11z m105 0 c13 -7 21 -7 25 0 10 16 22 12 28 -10 3 -12 -2 -24 -17 -33 -29
-19 -66 -3 -66 30 0 26 3 27 30 13z m105 0 c4 -7 12 -7 25 0 26 14 27 13 32
-17 3 -25 0 -28 -25 -30 -39 -3 -67 13 -67 37 0 21 24 27 35 10z m105 0 c13
-7 21 -7 25 0 9 15 25 12 25 -6 0 -9 5 -12 13 -8 7 5 6 0 -3 -11 -13 -16 -13
-18 0 -13 8 2 16 14 18 26 4 24 10 26 32 12 9 -5 19 -5 27 1 7 6 17 8 23 4 17
-11 11 -32 -14 -48 -21 -14 -26 -14 -45 -1 -19 14 -25 11 -22 -8 2 -12 -14 -9
-27 4 -9 9 -15 9 -23 1 -18 -18 -59 5 -59 34 0 26 3 27 30 13z m215 0 c4 -7
12 -7 25 0 28 15 30 13 30 -22 0 -17 -3 -28 -6 -25 -4 3 -14 2 -23 -3 -23 -12
-66 21 -58 44 7 18 23 21 32 6z m105 0 c13 -7 21 -7 25 0 11 17 25 11 25 -11
0 -12 -8 -27 -17 -34 -25 -18 -63 1 -63 32 0 26 3 27 30 13z m105 0 c4 -7 12
-7 25 0 25 14 27 13 33 -10 6 -24 -40 -54 -63 -40 -7 4 -18 7 -24 6 -6 -2 -8
-1 -5 1 3 2 4 15 1 28 -3 18 0 25 11 25 9 0 19 -5 22 -10z m155 -16 c0 -12 6
-24 13 -27 15 -6 -40 -6 -70 -1 -16 3 -23 11 -23 27 0 20 5 22 40 22 34 0 40
-3 40 -21z m55 16 c4 -7 12 -7 25 0 27 14 32 13 28 -11 -2 -12 -12 -28 -23
-35 -18 -12 -24 -11 -43 2 -25 17 -30 54 -8 54 8 0 18 -5 21 -10z m155 -17 c0
-24 -29 -38 -60 -28 -12 4 -20 15 -20 28 0 19 5 22 40 22 35 0 40 -3 40 -22z
m50 17 c13 -7 21 -7 25 0 12 19 35 10 35 -12 0 -32 -42 -51 -69 -31 -12 8 -21
23 -21 34 0 22 4 23 30 9z m162 -22 c3 -15 1 -25 -4 -22 -4 3 -15 1 -25 -4
-23 -13 -63 13 -56 36 3 13 15 17 43 17 34 0 39 -3 42 -27z m48 22 c13 -7 21
-7 25 0 3 5 13 10 21 10 22 0 17 -36 -8 -52 -31 -20 -68 -4 -68 29 0 26 3 27
30 13z m105 0 c4 -7 12 -7 25 0 26 14 27 13 32 -19 2 -17 1 -28 -4 -25 -4 3
-16 1 -25 -5 -23 -12 -56 10 -58 39 -2 21 19 28 30 10z m105 0 c13 -7 21 -7
25 0 10 16 22 12 28 -10 3 -11 10 -20 16 -20 6 0 11 9 11 20 0 22 7 25 29 11
9 -6 21 -5 32 2 21 13 24 11 33 -26 6 -25 4 -28 -13 -22 -11 3 -22 1 -26 -5
-4 -7 -13 -6 -28 1 -16 9 -22 9 -25 0 -2 -6 -8 -11 -13 -11 -6 0 -8 4 -4 9 10
16 -11 21 -31 7 -26 -19 -64 -1 -64 31 0 26 3 27 30 13z m215 0 c4 -7 12 -7
25 0 27 14 30 13 30 -13 0 -31 -38 -50 -63 -32 -9 7 -17 22 -17 34 0 22 14 28
25 11z m105 0 c13 -7 21 -7 25 0 11 18 25 10 25 -14 0 -13 6 -27 13 -30 6 -3
2 -3 -10 -1 -12 3 -24 1 -28 -4 -11 -19 -55 10 -55 36 0 26 3 27 30 13z m105
0 c4 -7 12 -7 25 0 27 14 32 13 28 -11 -2 -12 -12 -28 -24 -36 -19 -12 -24
-11 -44 5 -15 12 -21 25 -17 35 7 19 23 22 32 7z"/>
<path d="M660 679 c0 -15 34 -19 47 -6 12 12 9 14 -17 14 -16 0 -30 -4 -30 -8z"/>
<path d="M1193 673 c7 -8 21 -11 30 -7 27 10 20 21 -13 21 -26 0 -29 -2 -17
-14z"/>
<path d="M1723 673 c7 -8 21 -11 30 -7 27 10 20 21 -13 21 -26 0 -29 -2 -17
-14z"/>
<path d="M1920 679 c0 -15 34 -19 47 -6 12 12 9 14 -17 14 -16 0 -30 -4 -30
-8z"/>
<path d="M2130 679 c0 -15 34 -19 47 -6 12 12 9 14 -17 14 -16 0 -30 -4 -30
-8z"/>
<path d="M2660 679 c0 -15 34 -19 47 -6 12 12 9 14 -17 14 -16 0 -30 -4 -30
-8z"/>
<path d="M0 585 c0 -13 173 -15 1495 -15 1322 0 1495 2 1495 15 0 13 -173 15
-1495 15 -1322 0 -1495 -2 -1495 -15z"/>
<path d="M1490 550 l1495 -5 -1495 -3 c-822 -2 -1487 -7 -1477 -11 17 -6 17
-8 3 -20 -22 -18 -20 -54 4 -71 26 -18 26 -30 0 -30 -11 0 -20 -4 -20 -10 0
-7 505 -10 1494 -10 l1494 0 0 85 0 85 -1496 -2 -1497 -3 1495 -5z m-1409 -57
c-6 -11 -6 -24 0 -35 8 -14 6 -18 -10 -18 -10 0 -22 7 -25 16 -10 26 3 54 25
54 16 0 18 -3 10 -17z m40 0 c-6 -11 -6 -24 0 -35 13 -24 -16 -25 -30 -1 -11
21 3 53 25 53 11 0 13 -4 5 -17z m100 -1 c-6 -12 -6 -23 0 -33 9 -12 10 -12 6
1 -6 21 11 50 29 50 11 0 12 -4 5 -18 -6 -11 -6 -24 0 -35 9 -15 5 -17 -29
-17 -28 0 -42 5 -46 16 -10 26 3 54 25 54 16 0 18 -3 10 -18z m140 0 c-6 -12
-6 -23 0 -33 9 -12 10 -12 6 1 -6 21 11 50 29 50 11 0 12 -4 5 -18 -6 -11 -6
-24 0 -35 9 -15 5 -17 -29 -17 -28 0 -42 5 -46 16 -10 26 3 54 25 54 16 0 18
-3 10 -18z m140 1 c-6 -11 -6 -24 0 -35 8 -14 6 -18 -10 -18 -10 0 -22 7 -25
16 -10 26 3 54 25 54 16 0 18 -3 10 -17z m40 0 c-11 -21 3 -53 23 -53 8 0 19
-7 26 -15 11 -13 8 -15 -14 -15 -16 0 -26 5 -26 15 0 8 -7 15 -15 15 -7 0 -18
8 -24 17 -11 21 3 53 25 53 11 0 13 -4 5 -17z m100 -1 c-6 -12 -6 -23 0 -33 9
-12 10 -12 6 1 -6 21 11 50 29 50 11 0 12 -4 5 -18 -6 -11 -6 -24 0 -35 9 -15
5 -17 -29 -17 -28 0 -42 5 -46 16 -10 26 3 54 25 54 16 0 18 -3 10 -18z m140
0 c-6 -12 -6 -23 0 -33 9 -12 10 -12 6 1 -6 21 11 50 29 50 11 0 12 -4 5 -18
-6 -11 -6 -24 0 -35 9 -15 5 -17 -29 -17 -28 0 -42 5 -46 16 -10 26 3 54 25
54 16 0 18 -3 10 -18z m140 0 c-6 -12 -6 -23 0 -33 9 -12 10 -12 6 1 -6 21 11
50 29 50 12 0 13 -4 4 -21 -9 -16 -8 -25 5 -39 10 -11 20 -19 24 -18 18 2 31
-3 31 -12 0 -5 -11 -10 -25 -10 -16 0 -25 6 -25 15 0 11 -11 15 -39 15 -27 0
-41 5 -45 16 -10 26 3 54 25 54 16 0 18 -3 10 -18z m140 0 c-6 -12 -6 -23 0
-33 9 -12 10 -12 6 1 -6 21 11 50 29 50 11 0 12 -4 5 -18 -6 -11 -6 -24 0 -35
9 -15 5 -17 -29 -17 -28 0 -42 5 -46 16 -10 26 3 54 25 54 16 0 18 -3 10 -18z
m140 0 c-6 -12 -6 -23 0 -33 9 -12 10 -12 6 1 -6 21 11 50 29 50 11 0 12 -4 5
-18 -6 -11 -6 -24 0 -35 9 -15 5 -17 -29 -17 -28 0 -42 5 -46 16 -10 26 3 54
25 54 16 0 18 -3 10 -18z m140 1 c-6 -11 -6 -24 0 -35 8 -14 6 -18 -10 -18
-10 0 -22 7 -25 16 -10 26 3 54 25 54 16 0 18 -3 10 -17z m53 1 c9 -24 7 -36
-4 -29 -6 4 -7 11 -4 17 4 7 2 8 -4 4 -9 -5 -9 -13 -2 -27 8 -15 7 -19 -4 -19
-22 0 -36 31 -25 52 12 22 35 23 43 2z m87 -1 c-6 -11 -6 -24 0 -35 8 -14 6
-18 -10 -18 -10 0 -22 7 -25 16 -10 26 3 54 25 54 16 0 18 -3 10 -17z m40 0
c-6 -11 -6 -24 0 -35 13 -24 -16 -25 -30 -1 -11 21 3 53 25 53 11 0 13 -4 5
-17z m100 0 c-6 -11 -6 -24 0 -35 8 -14 6 -18 -10 -18 -10 0 -22 7 -25 16 -10
26 3 54 25 54 16 0 18 -3 10 -17z m53 1 c9 -24 7 -36 -4 -29 -6 4 -7 11 -4 17
4 7 2 8 -4 4 -9 -5 -9 -13 -2 -27 8 -15 7 -19 -4 -19 -22 0 -36 31 -25 52 12
22 35 23 43 2z m127 -3 c-6 -10 -5 -23 0 -34 9 -15 5 -17 -29 -17 -42 0 -58
17 -47 51 4 13 16 18 45 17 34 0 38 -3 31 -17z m100 1 c-5 -10 -6 -24 -1 -32
6 -10 9 -5 12 16 2 18 10 30 21 32 15 3 17 0 9 -15 -7 -12 -7 -25 -1 -36 9
-15 5 -17 -29 -17 -28 0 -42 5 -46 16 -10 26 3 54 25 54 16 0 18 -3 10 -18z
m140 0 c-6 -12 -6 -23 0 -33 9 -12 10 -12 6 1 -6 21 11 50 29 50 11 0 12 -4 5
-18 -6 -11 -6 -24 0 -35 9 -15 5 -17 -29 -17 -28 0 -42 5 -46 16 -10 26 3 54
25 54 16 0 18 -3 10 -18z m140 0 c-6 -12 -6 -23 0 -33 9 -12 10 -12 6 1 -6 21
11 50 29 50 11 0 12 -4 5 -18 -6 -11 -6 -24 0 -35 9 -15 5 -17 -29 -17 -28 0
-42 5 -46 16 -10 26 3 54 25 54 16 0 18 -3 10 -18z m140 0 c-6 -12 -6 -23 0
-33 9 -12 10 -12 6 1 -6 21 11 50 29 50 11 0 12 -4 5 -18 -6 -11 -6 -24 0 -35
9 -15 5 -17 -29 -17 -28 0 -42 5 -46 16 -10 26 3 54 25 54 16 0 18 -3 10 -18z
m140 0 c-6 -12 -6 -23 0 -33 9 -12 10 -12 6 1 -6 21 11 50 29 50 11 0 12 -4 5
-18 -6 -11 -6 -24 0 -35 9 -15 5 -17 -29 -17 -28 0 -42 5 -46 16 -10 26 3 54
25 54 16 0 18 -3 10 -18z m191 4 c11 -16 10 -38 -2 -31 -6 4 -7 11 -4 17 4 7
2 8 -4 4 -9 -5 -9 -13 -1 -27 9 -18 8 -20 -8 -17 -10 2 -19 13 -21 26 -2 12
-8 20 -13 17 -5 -4 -5 -14 1 -26 9 -16 7 -19 -9 -19 -22 0 -34 24 -26 51 5 14
15 18 43 17 20 -1 40 -6 44 -12z m140 0 c11 -16 10 -38 -2 -31 -6 4 -7 11 -4
17 4 7 2 8 -4 4 -9 -5 -9 -13 -2 -27 8 -15 7 -19 -4 -19 -18 0 -39 34 -28 45
4 5 1 5 -6 1 -9 -5 -9 -12 -2 -27 9 -16 7 -19 -9 -19 -22 0 -34 24 -26 51 5
14 15 18 43 17 20 -1 40 -6 44 -12z m129 -5 c-6 -10 -5 -23 0 -34 8 -13 6 -17
-5 -17 -18 0 -39 34 -28 45 4 5 1 5 -6 1 -9 -5 -9 -12 -2 -27 9 -16 7 -19 -9
-19 -22 0 -34 24 -26 51 4 13 16 18 45 17 34 0 38 -3 31 -17z m-2750 -79 c-12
-2 -29 -1 -37 2 -12 5 -13 8 -2 20 11 11 17 11 38 -3 l24 -16 -23 -3z m134 18
c18 -20 17 -20 -14 -20 -29 0 -30 2 -19 20 7 11 13 20 14 20 0 0 9 -9 19 -20z
m142 13 c-4 -3 -2 -12 4 -20 9 -10 5 -13 -20 -13 -36 0 -41 17 -8 30 28 11 32
12 24 3z m853 -30 c0 -2 -16 -3 -35 -3 -33 0 -34 1 -17 18 15 15 19 16 35 2 9
-8 17 -16 17 -17z m120 -1 c-27 -4 -32 0 -24 22 6 16 8 16 26 -1 20 -18 20
-18 -2 -21z m994 12 c4 -10 -3 -14 -24 -14 -27 0 -29 2 -18 19 12 20 33 18 42
-5z m-1674 -9 c0 -3 -14 -5 -31 -5 -27 0 -30 2 -19 15 9 11 17 12 31 4 10 -5
19 -12 19 -14z m124 19 c27 -10 18 -24 -15 -24 -27 0 -30 2 -19 15 14 17 13
17 34 9z m296 -19 c0 -3 -14 -5 -31 -5 -27 0 -30 2 -19 15 9 11 17 12 31 4 10
-5 19 -12 19 -14z m410 10 c11 -13 8 -15 -20 -15 -28 0 -31 2 -20 15 7 8 16
15 20 15 4 0 13 -7 20 -15z m140 0 c11 -13 8 -15 -19 -15 -27 0 -30 2 -19 15
17 18 23 18 38 0z m144 0 c4 -11 -2 -15 -26 -15 -26 0 -29 2 -18 15 7 8 18 15
25 15 7 0 15 -7 19 -15z m146 -6 c0 -5 -14 -9 -31 -9 -26 0 -29 3 -20 14 12
14 51 10 51 -5z m124 15 c27 -10 18 -24 -15 -24 -27 0 -30 2 -19 15 14 17 13
17 34 9z m140 0 c22 -9 10 -24 -20 -24 -25 0 -33 15 -11 23 6 3 13 6 14 6 1 1
8 -2 17 -5z m280 0 c26 -10 18 -24 -14 -24 -30 0 -41 14 -17 23 6 3 13 6 14 6
1 1 8 -2 17 -5z m141 -4 c4 -6 11 -7 17 -4 7 4 8 2 4 -4 -8 -14 -56 -16 -56
-4 0 21 25 29 35 12z m140 0 c4 -6 11 -7 17 -4 7 4 8 2 4 -4 -8 -14 -56 -16
-56 -4 0 21 25 29 35 12z"/>
<path d="M0 362 c0 -4 10 -12 23 -17 15 -7 22 -18 22 -37 -1 -16 5 -28 12 -28
7 0 10 -7 6 -16 -5 -14 1 -15 43 -10 27 3 57 6 67 6 20 1 50 28 60 53 10 27
30 20 25 -8 -3 -13 -1 -22 3 -19 5 3 9 -2 9 -10 0 -33 105 -32 145 2 29 24 39
52 18 52 -9 0 -14 3 -10 6 3 3 15 3 27 -1 16 -5 21 -13 17 -31 -3 -15 1 -25
12 -27 13 -4 13 -5 -2 -6 -10 0 -15 -5 -12 -11 3 -5 38 -10 76 -10 52 0 71 4
75 15 3 8 14 17 24 20 10 3 17 13 16 22 0 9 5 18 12 20 7 3 12 -5 12 -21 0
-14 5 -26 10 -26 6 0 10 -7 10 -16 0 -14 7 -16 48 -9 26 4 55 7 65 7 10 -1 21
6 24 14 3 8 12 14 19 14 11 0 12 4 4 19 -13 25 -13 44 0 36 6 -4 8 -11 5 -16
-3 -5 2 -6 11 -2 14 5 16 2 12 -20 -4 -19 -1 -27 9 -27 8 0 12 -4 8 -9 -8 -14
21 -20 93 -20 52 0 62 3 53 13 -16 19 9 27 46 16 27 -8 27 -8 3 -9 -17 -1 -21
-4 -13 -12 7 -7 31 -9 65 -5 29 3 65 6 80 6 16 1 27 6 25 13 -1 7 4 11 12 9
10 -2 12 5 8 30 -3 18 -3 27 0 20 2 -6 9 -10 14 -6 5 3 12 -2 16 -11 3 -10 0
-21 -8 -26 -10 -6 -8 -9 10 -9 20 0 21 -2 11 -15 -11 -13 -6 -15 33 -15 25 0
48 4 51 9 3 4 17 6 31 3 29 -5 34 14 8 34 -15 10 -16 15 -5 26 10 10 14 9 18
-9 4 -14 17 -23 39 -27 18 -4 38 -13 45 -21 27 -33 127 -10 153 35 22 36 41
39 35 5 -4 -18 -1 -25 11 -26 12 0 12 -2 -3 -8 -31 -12 -7 -18 77 -20 71 -2
78 -1 75 16 -2 14 3 18 26 16 16 -1 37 -10 47 -19 25 -22 118 -10 138 18 9 14
16 17 24 9 6 -6 19 -11 28 -11 9 0 19 -6 22 -14 4 -11 25 -15 81 -15 43 0 76
4 76 9 0 6 -8 10 -17 10 -12 0 -14 3 -6 11 7 7 21 7 44 1 20 -6 26 -11 15 -11
-15 -1 -17 -4 -9 -12 7 -7 31 -9 65 -5 29 3 63 6 76 6 13 0 22 6 22 15 0 8 5
14 12 13 7 -2 12 5 13 14 0 10 5 18 10 17 6 0 10 -9 9 -19 0 -11 6 -20 13 -20
8 0 12 -4 8 -9 -9 -15 33 -24 73 -15 21 4 42 7 48 5 7 -1 14 5 18 14 6 17 36
21 36 4 0 -5 5 -7 11 -4 5 4 19 -1 29 -10 16 -14 30 -16 72 -11 29 4 61 14 70
23 17 15 18 14 18 -5 0 -13 6 -22 15 -22 9 0 15 9 15 25 0 14 -5 24 -11 23 -6
-2 -14 3 -16 10 -3 6 2 12 11 12 10 0 16 9 16 25 l0 25 -1495 0 c-822 0 -1495
-3 -1495 -8z m120 -22 c0 -13 7 -20 20 -20 11 0 20 -4 20 -10 0 -5 -9 -10 -21
-10 -16 0 -19 -4 -14 -20 5 -14 2 -20 -9 -20 -9 0 -16 9 -16 20 0 13 -7 20
-20 20 -11 0 -20 5 -20 10 0 6 9 10 20 10 13 0 20 7 20 20 0 11 5 20 10 20 6
0 10 -9 10 -20z m212 -4 c-2 -10 4 -16 18 -16 26 0 26 -16 0 -23 -13 -3 -18
-10 -14 -21 4 -11 1 -16 -10 -16 -9 0 -16 8 -16 20 0 13 -7 20 -20 20 -11 0
-20 5 -20 10 0 6 9 10 20 10 14 0 20 7 20 21 0 12 5 19 13 16 6 -2 11 -11 9
-21z m210 0 c-2 -10 4 -16 18 -16 26 0 26 -16 0 -23 -11 -3 -19 -11 -18 -17 2
-7 -3 -15 -9 -17 -8 -3 -13 4 -13 16 0 14 -6 21 -20 21 -11 0 -20 5 -20 10 0
6 9 10 20 10 14 0 20 7 20 21 0 12 5 19 13 16 6 -2 11 -11 9 -21z m215 4 c3
-11 12 -20 19 -20 8 0 14 -4 14 -10 0 -5 -7 -10 -15 -10 -8 0 -15 -9 -15 -20
0 -11 -7 -20 -15 -20 -8 0 -15 9 -15 20 0 13 -7 20 -20 20 -11 0 -20 5 -20 10
0 6 9 10 20 10 13 0 20 7 20 20 0 11 5 20 11 20 6 0 13 -9 16 -20z m210 0 c3
-11 12 -20 19 -20 8 0 14 -4 14 -10 0 -5 -7 -10 -15 -10 -8 0 -15 -9 -15 -20
0 -11 -7 -20 -15 -20 -8 0 -15 9 -15 20 0 13 -7 20 -20 20 -11 0 -20 5 -20 10
0 6 9 10 20 10 13 0 20 7 20 20 0 11 5 20 11 20 6 0 13 -9 16 -20z m210 0 c3
-11 12 -20 19 -20 21 0 17 -17 -6 -23 -13 -3 -18 -10 -14 -21 4 -11 1 -16 -10
-16 -9 0 -16 8 -16 20 0 13 -7 20 -20 20 -11 0 -20 5 -20 10 0 6 9 10 20 10
13 0 20 7 20 20 0 11 5 20 11 20 6 0 13 -9 16 -20z m205 -4 c-2 -10 4 -16 18
-16 26 0 26 -16 0 -23 -13 -3 -18 -10 -14 -21 4 -11 1 -16 -10 -16 -9 0 -16 8
-16 20 0 13 -7 20 -20 20 -11 0 -20 5 -20 10 0 6 9 10 20 10 14 0 20 7 20 21
0 12 5 19 13 16 6 -2 11 -11 9 -21z m215 4 c3 -11 12 -20 19 -20 8 0 14 -4 14
-10 0 -5 -7 -10 -15 -10 -8 0 -15 -9 -15 -20 0 -11 -7 -20 -15 -20 -8 0 -15 9
-15 20 0 13 -7 20 -20 20 -11 0 -20 5 -20 10 0 6 9 10 20 10 13 0 20 7 20 20
0 11 5 20 11 20 6 0 13 -9 16 -20z m205 -4 c-2 -10 4 -16 18 -16 11 0 20 -4
20 -10 0 -5 -7 -10 -15 -10 -8 0 -15 -9 -15 -20 0 -11 -7 -20 -15 -20 -8 0
-15 9 -15 20 0 13 -7 20 -20 20 -11 0 -20 5 -20 10 0 6 9 10 20 10 14 0 20 7
20 21 0 12 5 19 13 16 6 -2 11 -11 9 -21z m215 4 c3 -11 12 -20 19 -20 8 0 14
-4 14 -10 0 -5 -7 -10 -15 -10 -8 0 -15 -9 -15 -20 0 -11 -7 -20 -15 -20 -8 0
-15 9 -15 20 0 13 -7 20 -20 20 -11 0 -20 5 -20 10 0 6 9 10 20 10 13 0 20 7
20 20 0 11 5 20 11 20 6 0 13 -9 16 -20z m210 0 c3 -11 12 -20 19 -20 8 0 14
-4 14 -10 0 -5 -7 -10 -15 -10 -8 0 -15 -9 -15 -20 0 -11 -7 -20 -15 -20 -8 0
-15 9 -15 20 0 13 -7 20 -20 20 -11 0 -20 5 -20 10 0 6 9 10 20 10 13 0 20 7
20 20 0 11 5 20 11 20 6 0 13 -9 16 -20z m210 0 c3 -11 12 -20 19 -20 8 0 14
-4 14 -10 0 -5 -7 -10 -15 -10 -8 0 -15 -9 -15 -20 0 -11 -7 -20 -15 -20 -8 0
-15 9 -15 20 0 13 -7 20 -20 20 -11 0 -20 5 -20 10 0 6 9 10 20 10 13 0 20 7
20 20 0 11 5 20 11 20 6 0 13 -9 16 -20z m205 -4 c-2 -10 4 -16 18 -16 11 0
20 -4 20 -10 0 -5 -7 -10 -15 -10 -8 0 -15 -9 -15 -20 0 -11 -7 -20 -15 -20
-8 0 -15 9 -15 20 0 13 -7 20 -20 20 -11 0 -20 5 -20 10 0 6 9 10 20 10 14 0
20 7 20 21 0 12 5 19 13 16 6 -2 11 -11 9 -21z m215 4 c3 -11 12 -20 19 -20 8
0 14 -4 14 -10 0 -5 -7 -10 -15 -10 -8 0 -15 -9 -15 -20 0 -11 -7 -20 -15 -20
-8 0 -15 9 -15 20 0 13 -7 20 -20 20 -11 0 -20 5 -20 10 0 6 9 10 20 10 13 0
20 7 20 20 0 11 5 20 11 20 6 0 13 -9 16 -20z m-915 -23 c-5 -29 -28 -32 -26
-4 1 9 -2 14 -7 11 -5 -3 -9 1 -9 8 0 7 10 13 23 13 19 0 22 -4 19 -28z m185
19 c-4 -10 -1 -13 9 -9 9 3 14 -2 14 -16 0 -26 -16 -27 -30 -2 -13 25 -13 41
1 41 6 0 9 -7 6 -14z m210 0 c-4 -10 -1 -13 9 -9 9 3 14 -2 14 -16 0 -22 -14
-28 -25 -11 -12 19 -14 50 -3 50 5 0 8 -7 5 -14z m426 0 c19 -15 23 -50 5 -43
-7 2 -12 12 -12 21 1 9 -4 16 -12 16 -8 0 -14 5 -14 10 0 13 11 12 33 -4z
m-460 -21 c8 -18 -11 -31 -25 -17 -11 11 -3 32 12 32 4 0 10 -7 13 -15z m210
0 c8 -18 -11 -31 -25 -17 -11 11 -3 32 12 32 4 0 10 -7 13 -15z"/>
<path d="M30 231 c0 -13 30 -22 51 -16 23 8 24 -3 3 -34 -14 -19 -14 -25 -3
-32 11 -7 11 -11 2 -17 -10 -6 -10 -12 2 -28 22 -29 18 -34 -20 -34 -38 0 -42
5 -20 34 12 16 12 22 2 28 -9 6 -9 10 0 16 9 6 7 15 -8 37 -12 17 -18 21 -14
10 4 -11 7 -24 7 -30 -1 -21 -8 -45 -15 -51 -12 -12 -8 -41 9 -54 8 -8 29 -13
47 -12 18 1 55 2 82 4 28 1 72 1 99 0 46 -2 48 -3 42 -27 -4 -14 -2 -25 4 -25
5 0 10 7 10 15 0 21 27 19 34 -2 3 -10 4 -6 2 10 l-3 27 74 0 c71 0 74 -1 85
-28 9 -21 12 -23 15 -9 3 9 12 17 21 17 13 0 14 2 4 9 -23 14 10 20 75 14 32
-3 71 -4 88 -4 23 1 27 -1 17 -11 -15 -15 -16 -38 -2 -38 6 0 10 7 10 15 0 21
30 19 31 -2 0 -12 2 -13 6 -5 3 7 0 19 -6 26 -9 11 5 13 80 14 l91 1 -5 -24
c-2 -14 0 -25 4 -25 5 0 9 7 9 15 0 8 7 15 15 15 8 0 15 -7 15 -15 0 -8 5 -15
10 -15 7 0 7 7 -1 21 -8 17 -8 23 2 30 7 4 17 5 23 2 17 -11 218 -5 240 7 17
8 28 8 48 -2 18 -10 45 -12 89 -8 86 9 194 1 180 -13 -14 -14 -14 -37 -1 -37
6 0 10 7 10 15 0 21 27 19 34 -2 3 -10 4 -6 2 9 -3 30 -6 29 75 30 59 0 89 -9
83 -27 -3 -7 -1 -16 5 -20 6 -3 11 1 11 9 0 9 7 16 15 16 8 0 14 5 13 11 -2 7
16 11 52 10 30 0 72 -1 93 -1 20 0 37 -5 37 -10 0 -6 6 -10 14 -10 8 0 17 -8
20 -17 3 -11 4 -7 3 7 -2 25 -1 25 86 28 48 1 87 0 87 -3 0 -4 -5 -15 -10 -26
-7 -13 -7 -19 0 -19 5 0 10 7 10 15 0 8 7 15 15 15 8 0 15 5 15 11 0 6 33 9
94 7 52 -1 90 -6 84 -9 -14 -9 -20 -39 -7 -39 5 0 9 7 9 15 0 8 7 15 16 15 8
0 12 4 9 10 -4 6 6 10 22 10 16 0 38 6 48 14 17 12 22 11 46 -6 21 -16 33 -18
60 -11 33 8 60 9 165 5 50 -2 51 -3 48 -29 -2 -16 -1 -20 2 -11 3 10 12 18 19
18 7 0 16 -8 18 -18 3 -10 5 -6 6 11 1 31 9 33 81 22 8 -1 16 -12 18 -23 2
-12 8 -22 13 -22 5 0 9 53 9 120 l0 120 -225 0 c-124 -1 -224 -4 -221 -8 3 -5
1 -14 -4 -22 -5 -8 -5 -19 1 -26 11 -13 1 -74 -13 -74 -5 0 -6 -5 -2 -12 5 -7
3 -8 -5 -3 -15 9 -11 126 4 137 6 4 -74 8 -176 8 l-185 0 -18 -40 c-20 -46
-29 -49 -50 -18 -22 31 -20 41 5 35 24 -6 49 1 49 14 0 4 -196 9 -435 9 l-435
0 4 -52 c4 -50 -10 -102 -24 -93 -9 6 -6 92 4 122 l7 23 -620 0 c-358 0 -621
-4 -621 -9z m160 -19 c0 -4 -7 -18 -16 -31 -14 -19 -14 -25 -3 -32 12 -8 12
-10 0 -18 -11 -7 -10 -13 4 -35 l17 -26 -36 0 c-39 0 -43 6 -22 35 12 17 12
21 -3 32 -15 11 -14 12 3 13 17 0 17 1 2 25 -23 35 -20 40 19 42 19 1 35 -2
35 -5z m85 -3 c2 -2 -5 -15 -16 -29 l-19 -25 -19 25 c-11 13 -18 27 -15 31 4
7 61 5 69 -2z m85 -4 c0 -6 -7 -21 -16 -33 -10 -14 -11 -22 -3 -22 6 0 8 -7 5
-16 -4 -9 1 -27 9 -40 15 -24 15 -24 -26 -24 l-41 0 17 26 c14 22 15 28 4 35
-12 8 -12 11 0 18 12 8 12 13 -2 35 -9 14 -17 27 -17 28 0 2 16 3 35 3 19 0
35 -5 35 -10z m90 1 c0 -6 -8 -20 -16 -31 -15 -20 -15 -20 -35 4 -26 32 -24
37 16 37 19 0 35 -5 35 -10z m90 6 c0 -2 -7 -16 -15 -32 -11 -22 -12 -30 -2
-33 9 -4 9 -7 0 -14 -10 -7 -10 -13 2 -29 22 -29 18 -34 -20 -34 -38 0 -42 5
-20 34 12 16 12 22 2 29 -9 7 -9 10 0 14 10 3 9 11 -2 33 -19 37 -21 35 20 35
19 0 35 -1 35 -3z m90 -2 c0 -3 -7 -16 -16 -29 -14 -19 -14 -25 -3 -32 12 -8
12 -10 0 -18 -11 -7 -10 -13 4 -35 l17 -26 -36 0 c-40 0 -43 6 -21 37 12 16
12 23 2 26 -9 4 -9 7 0 14 10 7 10 13 -2 29 -23 30 -18 39 20 39 19 0 35 -2
35 -5z m90 1 c0 -3 -9 -17 -20 -31 -20 -24 -21 -25 -35 -6 -23 30 -18 41 20
42 19 0 35 -2 35 -5z m90 -1 c0 -3 -9 -16 -20 -30 l-20 -25 -20 25 c-11 14
-20 27 -20 30 0 3 18 5 40 5 22 0 40 -2 40 -5z m80 -4 c0 -6 -8 -20 -16 -31
-15 -20 -15 -20 -35 4 -26 32 -24 37 16 37 19 0 35 -5 35 -10z m88 5 c1 -1 -4
-14 -13 -30 -11 -23 -12 -31 -2 -34 9 -4 9 -7 0 -14 -10 -7 -10 -13 2 -29 22
-29 18 -34 -20 -34 -38 0 -42 5 -20 34 12 16 12 22 2 29 -9 7 -9 10 0 14 10 3
9 11 -2 33 -8 16 -15 31 -15 33 0 4 51 2 68 -2z m92 -1 c0 -3 -7 -16 -16 -29
-14 -19 -14 -25 -3 -33 11 -7 11 -11 2 -15 -10 -3 -9 -11 2 -34 l16 -29 -36 0
c-38 0 -42 5 -20 34 12 16 12 22 2 28 -9 6 -9 10 0 16 10 6 10 12 -2 28 -23
30 -18 39 20 39 19 0 35 -2 35 -5z m73 -26 c-14 -22 -14 -27 -2 -35 12 -7 12
-10 0 -18 -11 -7 -10 -13 4 -35 l17 -26 -41 0 -40 0 21 37 c12 20 17 33 10 29
-7 -4 -12 -2 -12 3 0 6 5 11 11 11 7 0 5 10 -5 25 -21 32 -21 33 12 37 39 5
44 0 25 -28z m107 28 c0 -4 -9 -18 -20 -32 l-20 -25 -19 25 c-11 13 -18 27
-16 30 5 8 75 10 75 2z m110 -2 c0 -3 -7 -16 -16 -29 -14 -19 -14 -25 -3 -32
11 -7 11 -11 2 -17 -10 -6 -10 -12 2 -28 22 -29 18 -34 -20 -34 -38 0 -42 5
-20 34 12 16 12 22 2 29 -9 7 -9 10 0 14 10 3 9 11 -2 33 -19 38 -20 36 20 36
19 0 35 -3 35 -6z m90 2 c0 -4 -7 -18 -16 -31 -14 -19 -14 -25 -3 -32 12 -8
12 -10 0 -18 -11 -7 -10 -13 4 -35 l17 -26 -36 0 c-40 0 -43 5 -20 38 14 20
14 22 -3 22 -17 1 -17 1 -1 14 15 11 16 15 3 32 -22 30 -18 39 20 41 19 1 35
-2 35 -5z m90 0 c0 -4 -9 -18 -20 -32 l-20 -25 -19 25 c-11 13 -18 27 -16 30
5 8 75 9 75 2z m80 -7 c0 -6 -7 -21 -16 -33 -14 -20 -14 -22 2 -22 13 0 14 -3
4 -15 -10 -12 -9 -20 4 -40 l16 -25 -41 0 -41 0 17 26 c14 22 15 28 4 35 -12
8 -12 11 0 18 12 8 12 13 -2 35 -22 33 -23 33 18 32 19 -1 35 -6 35 -11z m90
0 c-1 -5 -7 -19 -16 -30 -15 -20 -15 -20 -34 5 -26 34 -25 37 15 36 19 -1 35
-5 35 -11z m90 7 c0 -2 -7 -16 -15 -32 -11 -22 -12 -30 -2 -33 9 -4 9 -7 0
-14 -10 -7 -10 -13 2 -29 22 -29 18 -34 -20 -34 l-36 0 16 29 c11 23 12 31 2
35 -9 5 -9 7 0 12 10 4 9 12 -2 34 -19 37 -21 35 20 35 19 0 35 -1 35 -3z m90
-2 c0 -3 -7 -16 -16 -29 -14 -19 -14 -25 -3 -32 12 -8 12 -10 0 -18 -11 -7
-10 -13 4 -35 l17 -26 -36 0 c-39 0 -43 5 -21 34 12 16 12 22 2 28 -9 6 -9 10
0 16 10 6 10 12 -2 28 -23 30 -18 39 20 39 19 0 35 -2 35 -5z m90 1 c0 -3 -9
-17 -20 -31 -20 -24 -21 -25 -35 -6 -23 30 -18 41 20 42 19 0 35 -2 35 -5z
m90 0 c0 -3 -9 -17 -20 -31 l-20 -25 -20 25 c-11 14 -20 27 -20 30 0 3 18 6
40 6 22 1 40 -1 40 -5z m168 -6 c2 -2 -4 -14 -13 -28 -13 -20 -13 -26 -3 -30
10 -4 10 -7 1 -14 -10 -7 -10 -13 2 -29 22 -29 18 -34 -20 -34 l-36 0 16 29
c11 23 12 31 2 34 -9 4 -9 8 2 15 11 8 11 14 -3 33 -9 13 -16 27 -16 32 0 7
59 0 68 -8z m92 7 c0 -2 -7 -16 -15 -32 -11 -22 -12 -30 -2 -34 9 -5 9 -7 0
-12 -10 -4 -9 -12 2 -35 l16 -29 -36 0 c-38 0 -42 5 -20 34 12 16 12 22 2 29
-9 7 -9 10 0 14 10 3 9 11 -2 33 -19 37 -21 35 20 35 19 0 35 -1 35 -3z m74
-30 c-12 -18 -13 -27 -6 -30 7 -2 12 -8 12 -13 0 -6 -4 -7 -10 -4 -15 9 -12
-13 6 -40 16 -25 16 -25 -20 -25 -41 0 -41 0 -20 42 9 16 11 27 5 24 -6 -4
-11 -2 -11 3 0 6 5 11 11 11 7 0 5 10 -5 25 -21 32 -21 33 12 37 40 5 45 -1
26 -30z m106 30 c0 -4 -9 -18 -20 -32 l-20 -25 -19 25 c-11 13 -18 27 -16 30
5 8 75 10 75 2z m110 -6 c0 -6 -7 -20 -15 -30 -12 -16 -12 -22 -2 -28 9 -6 9
-10 0 -16 -10 -6 -10 -12 2 -28 22 -29 18 -34 -20 -34 -38 0 -42 5 -20 34 12
16 12 22 2 28 -9 6 -9 10 0 16 10 6 10 12 -2 28 -23 30 -18 40 20 40 19 0 35
-5 35 -10z m90 4 c0 -3 -7 -16 -16 -29 -14 -19 -14 -25 -3 -33 11 -7 11 -11 2
-15 -10 -3 -9 -11 2 -34 l16 -29 -36 0 c-38 0 -42 5 -20 34 13 17 12 21 -3 32
-16 13 -16 13 2 14 17 0 17 1 2 25 -23 35 -20 40 19 41 19 0 35 -2 35 -6z m85
-1 c2 -2 -5 -15 -16 -29 -19 -24 -20 -25 -34 -6 -23 31 -18 44 15 41 17 -1 32
-4 35 -6z m93 2 c1 -1 -5 -13 -15 -28 -13 -20 -14 -28 -5 -31 10 -3 10 -7 1
-18 -9 -11 -8 -20 5 -39 l16 -25 -40 0 -40 0 16 26 c15 22 15 27 3 35 -12 8
-12 10 0 18 12 8 12 13 -2 34 -9 14 -14 26 -12 28 3 3 62 3 73 0z m82 -6 c0
-5 -7 -19 -16 -30 -15 -20 -15 -20 -34 5 -10 13 -17 27 -15 30 6 9 65 5 65 -5z
m-2700 -64 c0 -5 -6 -11 -12 -13 -9 -3 -8 -12 5 -31 l17 -27 -40 0 -41 0 21
30 c18 25 19 30 6 30 -9 0 -16 5 -16 10 0 6 14 10 30 10 17 0 30 -4 30 -9z
m170 -1 c0 -5 -5 -10 -11 -10 -7 0 -5 -10 5 -25 22 -33 21 -35 -20 -35 l-36 0
17 27 c12 18 14 28 7 31 -22 7 -12 22 13 22 14 0 25 -4 25 -10z m270 1 c0 -5
-5 -11 -12 -13 -7 -3 -5 -13 7 -31 l17 -27 -41 0 -41 0 17 27 c13 19 14 28 5
31 -23 7 -12 22 18 22 17 0 30 -4 30 -9z m90 -1 c0 -5 -7 -10 -16 -10 -13 0
-12 -5 6 -30 l21 -30 -41 0 -40 0 17 27 c13 19 14 28 5 31 -23 7 -12 22 18 22
17 0 30 -4 30 -10z m79 -3 c-15 -11 -15 -15 -3 -32 21 -29 17 -35 -22 -35
l-36 0 17 27 c12 18 14 28 7 31 -24 8 -11 22 21 22 28 -1 30 -2 16 -13z m361
3 c0 -5 -7 -10 -17 -10 -14 0 -15 -2 -1 -17 32 -38 31 -43 -12 -43 l-40 0 17
27 c13 19 14 28 5 31 -23 7 -12 22 18 22 17 0 30 -4 30 -10z m290 1 c0 -5 -5
-11 -12 -13 -7 -3 -5 -13 7 -31 l17 -27 -42 0 -41 0 21 30 c18 25 19 30 6 30
-9 0 -16 5 -16 10 0 6 14 10 30 10 17 0 30 -4 30 -9z m169 -4 c-15 -11 -15
-15 -3 -32 21 -29 17 -35 -22 -35 l-36 0 17 27 c12 18 14 28 7 31 -24 8 -11
22 21 22 28 -1 30 -2 16 -13z m271 4 c0 -5 -5 -11 -12 -13 -7 -3 -5 -13 7 -31
l17 -27 -42 0 -41 0 20 28 c18 26 18 29 3 39 -14 10 -12 12 16 12 17 1 32 -3
32 -8z m90 -1 c0 -5 -7 -10 -16 -10 -13 0 -12 -5 6 -30 l21 -30 -41 0 -40 0
17 27 c13 19 14 28 5 31 -23 7 -12 22 18 22 17 0 30 -4 30 -10z m78 -3 c-15
-10 -15 -13 3 -39 l20 -28 -41 0 -42 0 17 27 c12 18 14 28 7 31 -24 8 -11 22
21 21 27 0 29 -2 15 -12z m362 4 c0 -5 -5 -11 -12 -13 -7 -3 -5 -13 7 -31 l17
-27 -42 0 -41 0 21 30 c18 25 19 30 6 30 -9 0 -16 5 -16 10 0 6 14 10 30 10
17 0 30 -4 30 -9z m290 0 c0 -5 -5 -11 -12 -13 -7 -3 -5 -13 7 -31 l17 -27
-42 0 -41 0 21 30 c18 25 19 30 6 30 -9 0 -16 5 -16 10 0 6 14 10 30 10 17 0
30 -4 30 -9z m169 -4 c-15 -11 -15 -15 -3 -32 21 -29 17 -35 -22 -35 l-36 0
17 27 c12 18 14 28 7 31 -24 8 -11 22 21 22 28 -1 30 -2 16 -13z"/>
</g>
</svg>
